<svg xmlns="http://www.w3.org/2000/svg" width="9.24" height="16" viewBox="0 0 146.65 254">
   <path d="m151.96 109.13-41.38 71.66H27.83l-41.38-71.66 41.38-71.67h82.75z" style="fill:#0b1b3c"
      transform="translate(8 -22.13) scale(.5907)" />
   <path d="m151.96 109.13-41.38 71.66H27.83l-41.38-71.66 41.38-71.67h82.75z" style="fill:#06224e"
      transform="translate(81.32 -64.46) scale(.5907)" />
   <path d="m151.96 109.13-41.38 71.66H27.83l-41.38-71.66 41.38-71.67h82.75z" style="fill:#2a0d45"
      transform="translate(8 -106.8) scale(.5907)" />
   <path d="m151.96 109.13-41.38 71.66H27.83l-41.38-71.66 41.38-71.67h82.75z" style="fill:#0b1b3c"
      transform="translate(81.32 104.87) scale(.5907)" />
   <path d="m151.96 109.13-41.38 71.66H27.83l-41.38-71.66 41.38-71.67h82.75z" style="fill:#06224e"
      transform="translate(154.65 62.54) scale(.5907)" />
   <path d="m151.96 109.13-41.38 71.66H27.83l-41.38-71.66 41.38-71.67h82.75z" style="fill:#2a0d45"
      transform="translate(81.32 20.2) scale(.5907)" />
   <path d="m151.96 109.13-41.38 71.66H27.83l-41.38-71.66 41.38-71.67h82.75z" style="fill:#0b1b3c"
      transform="translate(-65.32 104.87) scale(.5907)" />
   <path d="m151.96 109.13-41.38 71.66H27.83l-41.38-71.66 41.38-71.67h82.75z" style="fill:#06224e"
      transform="translate(8 62.54) scale(.5907)" />
   <path d="m151.96 109.13-41.38 71.66H27.83l-41.38-71.66 41.38-71.67h82.75z" style="fill:#2a0d45"
      transform="translate(-65.32 20.2) scale(.5907)" />
   <path d="m151.96 109.13-41.38 71.66H27.83l-41.38-71.66 41.38-71.67h82.75z" style="fill:#06224e"
      transform="translate(81.32 189.54) scale(.5907)" />
   <path d="m151.96 109.13-41.38 71.66H27.83l-41.38-71.66 41.38-71.67h82.75z" style="fill:#2a0d45"
      transform="translate(8 147.2) scale(.5907)" />
   <path d="m151.96 109.13-41.38 71.66H27.83l-41.38-71.66 41.38-71.67h82.75z" style="fill:#06224e"
      transform="translate(-65.32 -64.46) scale(.5907)" />
   <path d="m151.96 109.13-41.38 71.66H27.83l-41.38-71.66 41.38-71.67h82.75z" style="fill:#06224e"
      transform="translate(-65.32 189.54) scale(.5907)" />
</svg>