<svg xmlns="http://www.w3.org/2000/svg" width="16" height="16" version="1.1" viewBox="0 0 192 280">
    <defs>
        <style>
            .b {
                fill: none
            }

            .b,
            .d,
            .f,
            .i {
                stroke: #231f20;
                stroke-miterlimit: 10
            }

            .b,
            .i {
                stroke-width: 3px
            }

            .j {
                fill: #fff
            }

            .d,
            .f {
                stroke-width: 2.63px
            }

            .d,
            .l {
                fill: #c5c6c8
            }

            .m {
                fill: #231f20
            }

            .f,
            .i {
                fill: #f8faf9
            }
        </style>
    </defs>
    <path
        d="M179.561 121.193c-2.64 6.06-2.12 9.32-1.05 11.19.58 1.02 1.84 2.55 3.13 5.5.41.94.8 1.99 1.14 3.18.43 1.46 1.04 3.58 1.08 6.32.05 3.03-.62 5.24-4 13.87-1.61 4.12-3.58 7.19-3.12 7.83.27.37.95-.61 2.51-.57 1.26.03 2.35.71 2.58.85.92.58.97.97 1.63 1.13.8.19 1.06-.3 2.1-.47 1.46-.24 1.86.59 2.64.28 1.15-.44 1.61-2.7 2.03-4.72 2.22-10.54 2.17-8.65 2.44-11.13.79-7.14.07-11.8.07-11.8-.8-5.86-2.48-5.85-3.13-11.09-.46-3.68 0-6.77.43-8.77"
        class="d" />
    <path
        d="M62.631 193.373c.65 1.28 1.32 2.86 1.85 4.7.79 2.69 1.04 5.1 1.1 6.96.78 1.98 2.08 5.27 2.66 6.75 4.1 10.4 6.13 15.7 5.42 20.15-.21 1.33-.71 3.42-2.09 5.89-2.52-1.47-5.68-3.03-6.58-2.09-.61.64.47 1.76.07 3.39-.87 3.52-7.18 4.54-6.92 5.74.1.48 1.11.29 2.64 1.42.97.71 1.02 1.12 1.7 1.65 1.27 1 2.29.55 4.74.94 1.7.27 4.77.75 6.04 2.82.66 1.08.18 1.53.9 2.6 1.09 1.62 2.85 1.57 4.43 2.34 2.87 1.4 5.21 5.48 4.52 8.2-.83 3.25-5.35 2.13-11.63 7.61-1.16 1.02-1.91 1.85-3.26 2.01-2.8.33-4.28-2.7-7.11-2.26-1.64.25-1.29 1.29-3.18 1.84-3.27.95-5.61-1.79-8.2-.42-.61.32-.72.6-1.34 1.17-4.45 4.09-14.19 3.85-17.82 1.34-.32-.22-1.05-.78-2.09-.84-1.51-.09-1.93.97-3.6 1.42-1.87.5-3.63-.21-5.61-1-1.06-.43-1.08-.57-3.01-1.59-4.24-2.25-4.86-1.97-6.27-3.18-.64-.54-2.79-2.39-3.01-5.02-.26-3.08 2.33-4.81 1.34-7.7-.25-.74-.39-.54-.84-1.59-1.15-2.71-.74-5.24-.59-6.11.32-1.82.7-3.99 2.34-4.94 1.26-.73 2.16-.09 3.01-.75.79-.62 1.3-2.19.17-6.27 1.24-.73 8.17-4.82 10.37-7.53.31-.38.56-.78.75-1.25.79-1.98 0-4.04-.5-5.1.18-.59 1.26-4.01 4.18-5.02.46-.16 1.36-.4 2.43-.17 1.53.34 2.02 1.39 2.62 1.15.72-.29.93-2.14.37-3.58-.38-.97-.8-.96-1.33-2.02-.82-1.63-.83-3.66-.28-3.9.57-.24 1.37 1.56 2.16 1.36 1.12-.28.99-4.24.94-5.8-.06-2.02-.11-3.06-.67-4.28-.86-1.85-1.75-1.63-2.86-3.28-2.2-3.28-1.18-7.91-.67-10.18.2-.91.43-1.64.59-2.1-1.13-1.1-2.26-2.19-3.39-3.29-.03-2.37-.05-4.75-.08-7.12-.49-.65-1.15-1.61-1.77-2.87-.25-.5-3.65-7.6-.98-10.56.98-1.09 2.16-.92 2.46-2.04.16-.62-.09-1.07-1.19-3.48-1.14-2.49-1.31-2.98-1.11-3.18.2-.21.84-.16 2.86 1.11-.16-1.49-.25-3.15-.24-4.93 0-1.21.07-2.35.16-3.42 1.46.05 2.92.11 4.38.16-1.88-1.41-2.17-2.81-2.24-3.34-.11-.92.2-1.32 1.99-4.94 1.31-2.64 1.76-3.66 2.43-3.64.79.03 1.03 1.51 1.65 1.47.73-.05 1.46-2.24 1.47-4.5.03-3.98-2.14-5.26-1.66-7.74.23-1.16 1.08-2.8 4.19-4.42.61-.4 1.81-1.3 2.56-2.91.98-2.1.26-3.99 0-6.02-.27-2.1-.15-5.22 1.84-9.36 41.57-4.61 55.79 2.46 60.28 10.89 4.96 9.31-2.31 19.59-1.97 47.38.14 11.89 1.62 21.74 2.95 28.56"
        class="f" />
    <path
        d="M64.231 197.223c-1.06 2.05-2.33 5.22-2.35 9.12 0 1.98.31 2.64.81 5.52 1.38 7.94.29 10.64 1.71 20.22.23 1.59.47 2.87.61 3.64m-2.38-42.35c.25-.87.99-3.13 2.38-3.35 1.46-.22 2.89 1.92 4.12 3.98 1.94 3.26 4.61 8.45 7.16 16.11-.27.1-3.04 1.23-3.62 3.96-.27 1.26.04 2.33.23 2.83.81 2.18 2.8 3.02 3.17 3.17.62-.39 1.58-.84 2.72-.79 2.08.09 3.54 1.81 4.07 2.38 1.59 1.71 4.68 3.8 11.32 5.2l1.98-1.32c2.08 1.18 2.82 2.43 3.12 3.36.31 1 .02 1.35.45 2.15.97 1.78 3.29 1.69 3.39 2.6.04.39-.31.97-2.04 1.81 1.29 2.25 2.72 3.59 3.85 4.41 1.29.95 2.45 1.41 2.72 2.6.27 1.19-.69 1.61-.57 2.94.12 1.28 1.12 2.14 3.06 3.73.85.71 2.13 1.66 3.85 2.6l-3.39 3.96c1.63 2.7 3.26 3.58 4.53 3.85 1.52.32 2.86-.19 3.73.68.69.69.69 1.83.57 2.72 3.28.23 6.56.45 9.84.68v-2.38c2.96-.26 6.69-.25 10.86.57 1.6.31 3.08.7 4.41 1.13-.02-.38.01-.89.34-1.24.72-.79 2.4-.33 2.83-.23 4.26 1.02 13.4-2.3 16.61-3.64 4.4-1.84 7.63-3.19 9.33-6.64.4-.82 1.8-3.65.62-6.84-1-2.72-4.99-3.27-4.77-4.77.11-.72 1-.86 1.02-1.64.02-1.02-1.48-1.82-2.36-2.29-2.57-1.38-3.82-.84-4.92-2.02-1-1.07-.33-1.88-1.01-3.1-2.38-4.25-15.65-3.46-17.19-3.37-.6.04-2.01.14-3.03-.74-1.25-1.07-.57-2.44-1.35-4.04-1.64-3.36-6.89-1.95-8.76-5.46-.87-1.63.2-2.05-.74-3.77-1.64-3.01-5.23-2.32-6.61-5.26-.72-1.54.03-2.22-.88-3.64-1.16-1.81-3.36-2.26-4.36-2.51-3.91-1.01-6.63-3.61-10.3-7.1-1.58-1.5-5.69-6.11-5.68-16.87"
        class="f" />
    <path
        d="M125.621 233.253c-.76.9-1.86 2.34-2.88 4.27-.51.98-2.91 5.72-3.16 13.29-.16 4.96.7 7.98-.8 8.77-.77.41-1.76.01-3.31-.61-1.4-.56-3.93-1.58-4.09-3.15-.2-1.98 3.57-3.07 3.26-4.74-.2-1.06-1.76-.85-4.12-2.95-1.02-.91-2.19-1.98-2.32-3.57-.1-1.11.35-2.03.67-2.56.21-.52.53-1.25 1.02-2.06 2.08-3.48 5.1-5.1 7.43-6.3 2.61-1.35 5.66-2.93 7.4-1.66.5.37.76.88.91 1.27zm-116.65 23.45c.45-1.28 1.48-1.99 2.48-2.65 4.41-2.92 10.43-2.81 10.67-1.86.07.28-.41.47-1.15 1.19-1.44 1.42-1.9 2.99-2.62 5.62-1.18 4.27-1.14 7.69-1.12 8.49.05 2.2.34 4.04.63 5.37-.34-.09-.88-.23-1.52-.43-3.13-.98-5.4-1.69-6.9-3.66-.26-.35-1.43-1.89-1.4-3.91.02-1.55.72-1.73.98-3.66.3-2.29-.57-2.98-.04-4.5zm55.44-57.51c.33.07-.33 2.28.21 5.62.43 2.65 1.37 4.49 1.96 5.69 2.18 4.43 5.26 10.68 6 16.26.29 2.19.39 5.52-.87 9.81-2.15-.8-4.29-1.59-6.44-2.39-.36-5.6-.57-9.94-.7-12.9-.19-4.6-.2-6.28-.87-9.01-.64-2.58-1.18-3.3-1.3-5.39-.25-4.22 1.57-7.78 2-7.69zm96.71 30.71c.86.35.2 1.79 1.61 3.32.91.99 1.7.95 5.46 2.69 1.88.87 2.28 1.15 2.24 1.39-.08.47-1.8.38-3.63.74-1.53.3-2.84.86-6 2.86-6.27 3.97-9.41 5.96-12.07 9.31-2.57 3.23-3.59 6.01-4.09 5.8-.53-.21.13-3.44 1.1-6.14 1.21-3.36 2.67-5.27 6.52-10.36 5.71-7.53 7.65-10.11 8.86-9.62zm-39.93-22.06c-2.77-.02-4.86.48-6.22.92-7.29 2.35-15.27 9.89-18.16 14.43-.37.57-1.34 2.18-2.98 2.48-.9.16-1.55-.16-3.23-.77-3.76-1.37-3.39-.82-4.53-1.46-2.97-1.66-3.04-4-5.84-4.69-.81-.2-1.3-.13-1.38-.38-.08-.27.22-1.12 7.31-4.21 9.72-4.23 14.58-6.35 21.4-7.01 3.16-.3 7.88-.43 13.63.69z"
        class="l" />
    <path
        d="M104.151 185.513c-13.29-.17-21.16 4.6-24.63 7.17-.73.54-7.9 5.9-6.83 8.19 1.14 2.45 11.09.2 20.53-1.94a189.13 189.13 0 0 0 15.77-4.3m-79.26-52.28c2.39 3.78 7.97 11.33 17.75 14.74 13.32 4.65 27.29-.86 27.19-2.82-.09-1.7-10.69-.05-23.6-6.16-7.14-3.38-12.26-7.85-15.61-11.3m1.3-12.81c1.24 1.26 3.41 3.14 6.59 4.5 3.92 1.68 7.43 1.73 9.31 1.63m20.96 34.93c-5.38.51-12.36.67-20.36-.49a85.575 85.575 0 0 1-22.73-6.61c2.25 2.31 5.65 5.51 10.22 8.74 6.23 4.4 12.6 8.69 21.24 9.68 3.19.36 8.43.47 14.93-1.72l.55-.19"
        class="b" />
    <path
        d="M59.041 182.803c7.25-.45 14.53-.13 21.73-.29 7.14-.14 14.22-1.16 21.17-2.8l.55-.13c.6.5 1.22 1.06 1.9 1.41.02.02.04-.02-.19.06-.1.04-.25.17-.3.3-.06.14-.04.2-.04.21.01.03 0-.07-.01-.15l-.12-.64c-.31-1.35-.04-2.69.07-4.04.03-.85-.01-1.71-.13-2.58.54 1.21.87 2.54.95 3.88-.03 1.28.56 2.25.83 3.47-.17 2.22-2.8.62-3.81-.02l.88.15c-13.89 5.41-29.19 4.14-43.48 1.16z"
        class="m" />
    <path
        d="M49.741 272.933c-.92-.78-2.34-2.2-3.27-4.37-1.56-3.66-.7-7.03-.22-8.91.45-1.78 2.02-7.9 7.25-10.4 1.87-.9 4.31-.93 9.19-1 3.82-.05 5.14.35 6.09.77 2.53 1.13 3.98 3.12 4.7 4.32-1.72-1.14-3-1.2-3.76-1.11-5.15.62-7.53 10.6-8.08 12.89-.75 3.15-.89 5.83-.89 7.58"
        class="b" />
    <path
        d="M58.151 244.863c-2.85-.36-7.96-.62-13.78 1.4-2.51.87-6.09 2.11-9.35 5.42-5.04 5.13-5.71 11.57-5.98 14.11-.42 4.06.17 7.42.72 9.57"
        class="b" />
    <path
        d="M44.371 246.263c-1.03-1.03-2.69-2.33-4.87-2.55-1.57-.15-2.29.18-5.98 1.66-4.65 1.87-5.08 1.06-7.19 2.49-1.75 1.19-2.59 2.51-4.15 4.98-2.68 4.24-3.61 8.07-4.1 10.13-.49 2.08-.94 4.09-.77 6.81.12 1.97.53 3.58.89 4.7"
        class="b" />
    <path
        d="M8.621 257.833c.7-.85 1.62-1.77 2.82-2.6 4.26-2.94 9-2.6 10.74-2.38m-9.16-8.74c3.78-.9 8.1-1.68 12.9-2.11 8.1-.73 15.21-.26 20.9.54"
        class="b" />
    <path
        d="M27.621 241.863a26.568 26.568 0 0 1-4.06-12.67m4.56-9.39a51.28 51.28 0 0 0 6.23 10.9c5.53 7.39 11.93 11.75 16.19 14.14m-17-27.48c3.4 3.16 6.61 5.51 9.2 7.2 6.69 4.37 12.7 6.61 16.01 7.68 2.06.67 3.82 1.13 5.12 1.44"
        class="b" />
    <path d="M33.141 212.643c8.28 1.45 16.19 2.02 24.57 1.52-7.33 4.69-17.83 3.92-24.57-1.52z" class="m" />
    <path
        d="M33.591 201.813c1.49-.37 3.54-.77 6.02-.94 5.34-.35 9.42.63 11.57 1.17 2.54.64 5.98 1.76 9.77 3.83m1.06-13.04c.14.52.38 1.71-.26 2.65-.47.69-1.21.94-1.49 1.02-7.25 2.1-16.03-2.19-16.03-2.19-4.8-2.4-5.47-3.91-14.49-8.88-.88-.48-1.6-.87-2.09-1.13"
        class="b" />
    <path
        d="M52.361 185.313c-10.27 2.74-21.46-3.08-27.05-11.73 2.28 1.27 4.33 2.7 6.48 3.93 6.38 3.9 13.16 6.46 20.56 7.8zm-19.39-18.61c6.05 4.57 11.39 9.68 16.19 15.56-7.26-2.51-13.38-8.41-16.19-15.56z"
        class="m" />
    <path d="M144.561 256.913a39.38 39.38 0 0 1 7.05-8.99c7.01-6.64 14.79-9.04 18.88-9.97" class="b" />
    <path
        d="M160.981 230.183a53.034 53.034 0 0 0-9.17 9.67c-2.77 3.78-5.57 7.68-6.74 13.49a27.31 27.31 0 0 0-.41 7.97m-.2-33.21c-3.73 4.28-6.38 8.23-8.17 11.24-2.28 3.82-4.26 7.17-5.62 12.06-1.12 4.02-1.39 7.5-1.43 9.91m-9.71-.31a39.69 39.69 0 0 1-.2-7.97c.09-1.26.48-5.75 2.55-11.44 1.71-4.7 3.36-9.06 7.56-12.87 1.69-1.54 5.23-4.27 10.99-5.58"
        class="b" />
    <path
        d="M107.091 241.883c1.23-1.27 2.75-2.6 4.58-3.87 5.43-3.75 10.93-4.97 14.41-5.41m-24.22 1.84c1.97-1.35 4.42-2.74 7.36-3.88 8.39-3.25 16.05-2.57 20.23-1.84m-29.43-.01c2-1.33 4.04-2.66 6.13-3.98 3.63-2.31 7.21-4.48 10.73-6.54"
        class="b" />
    <path
        d="M131.281 216.863c-5.58.38-10.44.87-14.41 1.33-10.45 1.21-13.91 2.17-17.27 4.5-2.42 1.68-4.14 3.62-4.29 3.47-.21-.21 2.88-4.08 6.74-7.66 4.31-4 9.6-8.91 16.96-9.81 2.99-.37 5.5.03 5.52-.2.03-.33-4.92-1.4-9.91-1.53-2.23-.06-7.79-.06-20.02 4.19a141.42 141.42 0 0 0-18.96 8.19"
        class="b" />
    <path
        d="M162.751 142.043c.66.61.81.86 1.34 1.41 4.05 4.18 9.97 5.03 10.39 5.08 1.28.17 4.25.52 7.74-.72 1.43-.51 6-2.14 8.31-6.98 2.49-5.21.49-10.19.15-11.01.18.06.43.11.63 0 .85-.44.61-3.29-.42-5.56-1.12-2.46-2.29-2.28-2.8-4.41-.37-1.55.08-2.36-.62-2.98-.72-.63-1.5-.04-3.4-.53-.73-.19-2.23-.58-2.56-1.57-.25-.75.34-1.35.61-2.09.99-2.77-2.86-6.53-3.34-7.01-4.06-3.98-9.83-3.71-11.15-3.62-.24-.57-.6-1.35-1.13-2.23-1.34-2.23-3.18-5.33-5.98-5.63-1.97-.21-4.03.99-4.74 1.41-1.04.6-.99.83-1.68 1.08-2.11.77-3.32-1.05-5.47-.88-2.18.17-3.79 2.25-5.54 4.51-1.82 2.34-2.12 3.87-3.77 4.32-.63.17-1.06.07-2.9-.42-6.22-1.66-7.64-2.18-8.87-1.4-.96.61-1.03 1.52-1.95 1.59-1.05.09-1.96-1.03-2.37-1.54-1.59-1.97-.81-3.2-1.91-4.11-1.42-1.18-3.04.62-6.25-.23-2.12-.57-2.16-1.55-3.99-1.63-.12 0-2.98-.1-4.31 1.74-.75 1.03-.41 1.83-1.31 2.58-.79.66-1.54.46-2.48.71-2.45.66-3.65 3.69-3.88 4.28-.87 2.21.7 2.93 2.15 9.29.54 2.39.54 3.14 1.22 5.17.91 2.7 1.37 4.05 2.53 5.03 1.87 1.58 5.22 2.2 7.86 1.32 1.1-.37 2.01-.98 2.95-.56.22.1.78.43 1.44 2.19.59 1.56.71 2.81.79 3.41.35 2.65 1.37 4.55 2.61 6.83 1.16 2.14 1.76 3.23 3.06 3.77 1.01.42 1.51.13 3.18.38 1.87.28 2.51.84 4.26 1.47 1.6.58 5.05 1.83 8.52.71.85-.28 2.41-.78 3.62-2.2 2.41-2.84.65-6.08 2.79-7.65.45-.33.37-.07 4.7-.71 2.83-.41 3.43-.61 4.19-.18 1.3.73.62 1.91 2 3.63 1.49 1.86 3 1.4 5.76 3.94z"
        class="i" />
    <path
        d="M114.371 101.823c-.5.54-.98 1.35-1.32 5.23-.24 2.66-.07 2.98.11 3.04.12.04.37.02 1.24-1.11 1.16-1.51 1.4-2.37 1.92-3.15 1.65-2.51 4.83-2.23 4.85-3.52 0-.66-.81-1.15-1.32-1.45-1.93-1.16-4.14-.02-4.29.06-.66.35-1.06.78-1.18.91zm57.48 5.19c1.55.11 4.3.54 7.09 2.34 1.32.85 2.32 1.8 3.04 2.6 0 .97-.09 2.2-.63 2.37-.54.17-1.28-.81-1.63-1.24-3.3-4.07-9.2-5.36-8.96-5.99.04-.1.25-.19 1.08-.08zm-12.04-3.43c-.61-.36-1.48-.76-2.56-.83-2.18-.14-3.51 1.16-3.83.8-.4-.45 1.09-3.12 3.65-4.55.51-.29 2.84-1.51 5.69-.86.49.11 2.86.65 3.99 2.61.17.3.69 1.2.35 1.72-.36.55-1.42.32-2.6.28-1.1-.04-2.7.08-4.7.84zm-20.82 27.68c-.64-.3-6.13-2.85-7.48-1.18-.37.45-.26 1.25-.04 2.82.32 2.21.57 3.98 1.82 5.82.85 1.25 1.89 2.79 3.8 3.16 2.56.5 4.59-1.51 5-1.92.1-.1 2.21-2.22 1.59-3.46-.38-.76-1.46-.49-2.6-1.22-1.36-.87-1.88-2.56-2.09-4.03z"
        class="l" />
    <path
        d="M143.251 136.413c0 2.26-1.22 4.27-3.11 5.13-.09.04-2.27.99-4.41-.1-1.84-.94-2.64-2.87-3.21-4.8-.74-2.53-1.9-7.84-.12-18.93 1.02-6.32 2.98-8.96 3.68-10.02 1.56-2.35 3.28-3.98 4.54-5.01a29.682 29.682 0 0 0-3.49 8.95c-.81 3.82-.61 6.58-.07 12.09.33 3.36.94 7.42 3.13 10.37.46.62 1.06 1.28 1.99 1.69 1.82.81 3.62.08 5.3-.37 1.78-.47 4.36-.88 7.75-.51"
        class="b" />
    <path
        d="M138.361 131.393a34.307 34.307 0 0 1-6.71-1.49m35.94-28.92c-.5-.59-2.46-2.76-5.55-3.01-3.02-.25-5.24 1.47-5.91 2.03-4.64 3.88-4.56 10.9-4.47 18.85 0 .63.12 7.46 2.15 9.27.18.16.93.78 1.15 1.79.18.82-.12 1.34-.22 2.07-.17 1.15.28 2.06 1.19 3.89.83 1.68 1.53 3.09 3.03 4.39 1.25 1.09 3.39 2.4 4.15 1.78.47-.38.02-1.21.18-2.44.23-1.69 1.46-2.87 3-4.12 7.66-6.2 15.66-8.63 16.58-8.9 1.59-.47 3.23-.86 4.78-.06 1.98 1.01 2.62 3.32 2.81 4.17"
        class="b" />
    <path
        d="M188.301 127.233c-3.53 1.3-6.22 2.79-8.02 3.9-3.83 2.38-8.99 5.54-10.67 11.1-.44 1.47-.55 2.76-.56 3.63.1-1.12.46-3.31 2.13-5.08.66-.7 1.52-1.32 4.34-2.32 5.21-1.84 8.21-2.9 11.55-1.69.9.33 2.13.93 3.42 2.12m-5.63-22.79c-1.43.1-3.6.3-6.2.75-5.76 1.01-13.75 2.41-19.96 8.43-1.02.99-2.39 2.49-3.74 4.62"
        class="b" />
    <path
        d="M182.461 112.363c-1.11-1.27-4.34-4.61-9.24-5.11-6.27-.64-10.85 3.84-13.42 6.34-4.69 4.57-6.4 9.91-7.06 12.75m17.08-23.79a41.528 41.528 0 0 0-17.24 4"
        class="b" />
    <path
        d="M159.681 103.943a5.86 5.86 0 0 0-1.92-.86c-1.91-.48-3.52.14-4.11.41m16.55 3.66c2.15.84 4.97 2.19 7.87 4.42 2.04 1.57 3.63 3.18 4.82 4.58m-60.14 25c-.89-1.35-2.09-3.41-3.09-6.08-.91-2.43-3.92-10.87-.45-20.37 2.12-5.8 5.77-9.57 8.09-11.57m-12.67 22.79c-.4-1.33-.93-3.24-1.38-5.59-1.47-7.76-.59-12.6-.08-14.73.97-4.08 2.11-4.76 2.48-4.96 2.76-1.44 6.65 1.63 6.97 1.88"
        class="b" />
    <path
        d="M121.631 102.103c-1.38.6-4.11 2.02-6.38 4.97a16.37 16.37 0 0 0-2.83 5.88m-10.51 3.95a48.836 48.836 0 0 1 2.93-14.47"
        class="b" />
    <path
        d="M27.171 71.873c.17.51 1.01 2.42 1.73 5.41.63 2.6.87 4.8.97 6.27 5.23-2.77 13.75-6.57 24.69-8.14 31.03-4.46 55.18 12.93 64.62 2.69 1.27-1.38 2.88-3.91 3.04-8.74-.93-1.06-2.18-2.67-3.3-4.82-.5-.97-2.59-5.14-2.77-11.06-.05-1.72.04-4.18.72-7.08-11.89-7.54-22.34-9.35-28.94-9.74-36.22-2.17-61.81 32.07-60.78 35.22z"
        style="fill:#dcd0ff;stroke:#231f20;stroke-width:2.63px;stroke-miterlimit:10" />
    <ellipse id="ellipse60" cx="60.686" cy="62.029" rx="11.68" ry="13.51"
        style="fill:#fff;stroke:#231f20;stroke-width:2.63px;stroke-miterlimit:10" transform="rotate(-6.86)" />
    <ellipse id="ellipse62" cx="97.532" cy="63.028" rx="9.6" ry="13.51"
        style="fill:#fff;stroke:#231f20;stroke-width:3px;stroke-miterlimit:10" transform="rotate(-6.86)" />
    <path d="M47.191 56.833c5.4 3.36 9.31 11.16 5.19 16.9-.36-3.09-.78-5.71-1.88-8.5-1.01-2.81-2.6-5.36-3.31-8.41z"
        class="m" />
    <path
        d="M32.601 63.413c.83.46 4.21 2.45 5.75 6.77 1.54 4.35.14 8.04-.22 8.91-2.75 1.12-5.51 2.25-8.26 3.37.15-1.04.24-2.22.21-3.53-.09-3.48-1.05-6.28-1.89-8.16.46-1.26 1.15-2.77 2.16-4.37.76-1.19 1.54-2.19 2.26-3z"
        style="fill:#afa5d6" />
    <path
        d="M104.851 43.913c-2.6 2.51-3.91 7.85-2.19 12.27 1.26 3.25 4.43 6.69 7.26 5.89 2.14-.61 3.13-3.37 3.66-4.83 1.71-4.74 1.02-11.19-1.99-13.82-.32-.28-1.32-1.13-2.72-1.25-2.02-.18-3.51 1.25-4.02 1.74zm-36.64 3.45c-3.29 2.33-5.26 7.58-3.55 12.11 1.25 3.33 4.75 6.97 8.18 6.34 2.59-.47 3.99-3.16 4.72-4.58 2.4-4.62 2.08-11.1-1.3-13.92-.35-.3-1.48-1.21-3.14-1.43-2.39-.31-4.27 1.02-4.91 1.48z"
        style="fill:#776faa;stroke:#231f20;stroke-width:3px;stroke-miterlimit:10" />
    <ellipse id="ellipse70" cx="60.686" cy="62.029" class="b" rx="11.68" ry="13.51" transform="rotate(-6.86)" />
    <path
        d="M28.971 75.783c-3.87 5.26-7.21 9.21-9.65 11.94-2.17 2.44-4.36 4.76-5.94 8.68-.59 1.46-1.45 3.58-1.51 6.32-.07 3.03.86 5.24 5.57 13.87 2.24 4.12 4.99 7.19 4.34 7.83-.38.37-1.32-.61-3.49-.57-1.75.03-3.28.71-3.59.85-1.28.58-1.35.97-2.26 1.13-1.11.19-1.48-.3-2.93-.47-2.03-.24-2.58.59-3.68.28-1.6-.44-2.24-2.7-2.83-4.72-3.08-10.54-3.02-8.65-3.4-11.13-.86-5.63-1.32-8.65-.09-11.8 1.92-4.9 6.39-6.11 11.32-9.44 4.43-3 10.04-8.26 14.59-18.16"
        class="d" />
    <path
        d="M114.801 68.613c3.07.49 5.57 1.05 7.23 1.45.04 1.07 0 2.63-.45 4.43-.99 4.04-3.25 6.28-4.79 8.32-.89 1.18-2.36 5.63-5.24 14.47-3.79 11.6-4.06 12.44-5.24 14.11-3.48 4.89-8 7.27-10.4 8.5-1.2.61-7.28 3.63-15.82 3.62-9.45-.01-16.43-3.72-22.88-7.15-1.75-.93-5.36-2.95-9.48-6.17-2.67-2.09-4.93-3.89-7.3-6.86-1.78-2.24-2.74-4.06-4.6-7.56-2.14-4.02-1.58-6.98-4.26-9.03-1.01-.78-1.84-1-1.93-1.73-.21-1.66 3.6-3.43 5.9-4.45 11.17-4.94 17.57-6.26 17.57-6.26 13.71-2.82 20.56-4.23 23.94-4.69 13.35-1.81 24.06-3.18 37.77-.98zm2.05-24.4c-1.84-.48-4.53-1.11-7.83-1.61-3.26-.5-19.44-2.78-39.87 3.76-8.24 2.64-19.28 6.17-29.74 16.14-5 4.76-8.34 9.52-10.45 13.01a37.73 37.73 0 0 1-5.37-8.9c-4.66-10.94-2.8-21.38-1.58-27.84 1.09-5.76 1.89-9.98 4.75-14.87 6.68-11.44 18.28-15.75 25.31-18.35 3.53-1.31 10.99-3.72 20.88-3.96 9.97-.25 22.72-.57 31.96 8.08 7.46 6.98 9.58 16.96 10.76 22.47 1.04 4.89 1.22 9.09 1.18 12.09z"
        class="i" />
    <path
        d="M24.951 68.453c4.67-7.25 9.37-12.42 12.69-15.72 5.73-5.69 22.98-21.32 49.21-25.51 4.83-.77 8.82-.97 11.28-1.03m-76.96 26.02c3.57-7.26 7.65-12.28 10.62-15.44 7.06-7.51 14.74-11.84 22.26-16.09 3.66-2.07 6.78-3.61 8.92-4.62m38.87-8.85c-3.76 0-8.05.36-12.69 1.41-1.2.27-2.36.57-3.46.9"
        class="b" />
    <path
        d="M55.071 4.533c4.17-.02 8.68.23 13.46.9 19.91 2.79 35.01 11.51 44.45 18.38m3 11.69c-9.42-5.96-24.46-13.85-44.37-18.02a134.24 134.24 0 0 0-37.83-2.44m2.97 81.7c4.84-2.85 11.1-6.06 18.7-8.84 6.76-2.48 21.56-7.73 40.98-6.8 8.27.39 15.1 1.8 19.89 3.06"
        class="b" />
    <path
        d="M87.061 81.113c-5.83 1.85-15.33 5.72-24.54 13.95a66.958 66.958 0 0 0-13.13 16.04m61.71-15.97c-8.86.06-16.25.99-21.72 1.94-9.03 1.57-20.27 3.63-32.24 10.97-2.53 1.55-4.54 3-5.9 4.03m2.4 1.42c1.08-.53 2.69-1.25 4.7-1.94 6.46-2.21 9.6-1.45 23.51-1.64 8.46-.11 12.18-.46 17.98 1.27 1.85.55 3.34 1.14 4.33 1.57"
        class="b" />
    <path
        d="M123.291 178.533c.7.8.85 1.1 1.4 1.81 4.23 5.4 11.07 7.12 11.56 7.24 1.48.35 4.92 1.14 9.16.11 1.74-.42 7.3-1.77 10.61-7.16 3.56-5.8 1.83-11.89 1.53-12.89.21.1.48.18.74.08 1.05-.41 1.12-3.78.19-6.57-1.01-3.03-2.41-2.96-2.74-5.52-.25-1.86.38-2.76-.36-3.57-.77-.83-1.75-.23-3.92-1.04-.83-.31-2.54-.95-2.8-2.16-.2-.91.57-1.54.97-2.38 1.5-3.12-2.54-8.01-3.06-8.63-4.27-5.16-11.07-5.56-12.63-5.61-.21-.69-.54-1.65-1.05-2.75-1.29-2.79-3.07-6.65-6.32-7.33-2.28-.48-4.84.67-5.73 1.07-1.29.58-1.26.85-2.1 1.06-2.57.64-3.76-1.64-6.31-1.7-2.57-.06-4.72 2.18-7.05 4.6-2.42 2.52-2.97 4.28-4.95 4.6-.76.12-1.25-.05-3.34-.85-7.09-2.71-8.69-3.5-10.23-2.74-1.2.59-1.39 1.65-2.48 1.63-1.25-.03-2.17-1.45-2.58-2.09-1.62-2.5-.56-3.86-1.73-5.06-1.52-1.55-3.64.36-7.3-1.04-2.42-.93-2.34-2.08-4.47-2.41-.14-.02-3.48-.48-5.27 1.5-1 1.11-.71 2.09-1.85 2.86-1 .67-1.86.35-2.99.53-2.95.47-4.73 3.88-5.07 4.54-1.3 2.48.46 3.52 1.38 11.16.34 2.87.24 3.75.8 6.22.74 3.28 1.1 4.92 2.35 6.21 2 2.08 5.85 3.23 9.05 2.52 1.34-.3 2.48-.9 3.53-.29.24.14.86.6 1.42 2.75.5 1.9.49 3.38.51 4.1.08 3.15 1.05 5.5 2.22 8.33 1.09 2.65 1.67 4 3.12 4.8 1.13.62 1.75.34 3.68.84 2.16.56 2.84 1.29 4.81 2.25 1.81.88 5.69 2.76 9.9 1.88 1.03-.22 2.93-.62 4.52-2.13 3.18-3.03 1.51-7.05 4.21-8.63.57-.33.45-.04 5.59-.25 3.37-.14 4.1-.29 4.93.3 1.43 1.01.5 2.31 1.9 4.51 1.52 2.36 3.35 2.01 6.27 5.33z"
        class="i" />
    <path
        d="M71.511 125.423c-.65.58-1.32 1.46-2.2 5.97-.6 3.09-.45 3.49-.25 3.58.13.06.43.07 1.59-1.14 1.55-1.62 1.93-2.61 2.63-3.46 2.24-2.74 5.94-2.02 6.12-3.53.09-.77-.81-1.45-1.37-1.87-2.12-1.59-4.85-.54-5.03-.46-.82.33-1.34.78-1.5.92zm66.76 13.16c1.8.32 4.98 1.17 8.03 3.61 1.45 1.16 2.5 2.39 3.24 3.43-.12 1.13-.37 2.56-1.02 2.7-.65.13-1.4-1.11-1.76-1.66-3.36-5.18-10.13-7.42-9.77-8.12.06-.12.32-.2 1.28.04zm-13.7-5.51c-.67-.5-1.64-1.07-2.9-1.29-2.54-.44-4.26.93-4.58.46-.41-.58 1.66-3.52 4.84-4.88.64-.27 3.52-1.43 6.78-.31.56.19 3.28 1.12 4.36 3.56.17.38.66 1.49.2 2.06-.49.6-1.71.19-3.08 0-1.29-.18-3.17-.24-5.61.4zm-27.82 29.9c-.72-.44-6.84-4.1-8.63-2.3-.48.49-.46 1.43-.39 3.31.1 2.63.18 4.73 1.41 7.05.84 1.57 1.87 3.5 4.07 4.17 2.94.9 5.57-1.21 6.1-1.64.13-.1 2.86-2.33 2.28-3.86-.36-.94-1.65-.75-2.9-1.75-1.49-1.18-1.89-3.23-1.95-4.98z"
        class="l" />
    <path
        d="M101.121 169.533c-.28 2.65-1.95 4.86-4.28 5.63-.11.04-2.79.88-5.16-.66-2.05-1.33-2.74-3.69-3.17-6.03-.56-3.06-1.27-9.43 2.19-22.21 1.97-7.29 4.6-10.14 5.55-11.3 2.11-2.56 4.34-4.26 5.94-5.32a35.079 35.079 0 0 0-5.19 10.07c-1.42 4.39-1.52 7.65-1.57 14.17-.03 3.99.19 8.82 2.4 12.54.46.78 1.09 1.63 2.12 2.23 2.03 1.17 4.23.54 6.26.22 2.15-.34 5.22-.49 9.15.35"
        class="b" />
    <path
        d="M96.011 163.043a40.805 40.805 0 0 1-7.69-2.58m45.7-29.47c-.52-.76-2.54-3.54-6.14-4.22-3.51-.66-6.33 1.07-7.18 1.65-5.92 3.97-6.69 12.22-7.56 21.55-.07.73-.77 8.76 1.38 11.14.19.21 1 1.03 1.13 2.24.11.99-.3 1.55-.52 2.39-.34 1.33.08 2.46.91 4.71.77 2.07 1.41 3.81 3.01 5.52 1.33 1.43 3.68 3.23 4.64 2.6.6-.39.17-1.42.52-2.84.48-1.95 2.07-3.19 4.02-4.46 9.74-6.33 19.43-8.2 20.54-8.4 1.92-.35 3.89-.61 5.62.51 2.19 1.43 2.66 4.22 2.79 5.23"
        class="b" />
    <path
        d="M155.071 164.323c-4.3 1.09-7.64 2.5-9.88 3.59-4.78 2.32-11.23 5.39-13.87 11.71-.7 1.67-.98 3.17-1.11 4.19.25-1.3.95-3.83 3.12-5.69.87-.74 1.94-1.36 5.38-2.18 6.33-1.51 9.99-2.39 13.76-.56 1.02.49 2.39 1.35 3.75 2.91m-3.81-27.45c-1.69-.06-4.26-.1-7.36.12-6.88.47-16.42 1.13-24.45 7.43a30.033 30.033 0 0 0-4.96 4.96"
        class="b" />
    <path
        d="M150.061 146.163c-1.15-1.62-4.52-5.94-10.2-7.13-7.27-1.52-13.2 3.17-16.52 5.78-6.06 4.79-8.72 10.83-9.85 14.08m22.95-25.79c-2.6-.24-5.75-.32-9.29.03-4.61.46-8.48 1.5-11.42 2.54"
        class="b" />
    <path
        d="M124.381 133.483c-.48-.41-1.2-.9-2.15-1.25-2.18-.8-4.14-.27-4.87-.03m18.96 6.34c2.42 1.24 5.55 3.18 8.68 6.15 2.2 2.09 3.86 4.17 5.09 5.97m-73.6 21.91c-.87-1.69-2.03-4.25-2.87-7.51-.77-2.96-3.26-13.23 1.98-23.94 3.2-6.55 7.94-10.51 10.91-12.57m-17.66 25.16c-.31-1.61-.69-3.92-.93-6.72-.77-9.28.86-14.85 1.72-17.28 1.64-4.66 3.06-5.33 3.52-5.51 3.41-1.35 7.6 2.73 7.94 3.07"
        class="b" />
    <path
        d="M79.991 126.643c-1.7.54-5.07 1.86-8.09 5.05a18.976 18.976 0 0 0-4.04 6.55m-12.82 3.32c.39-2.51 1-5.42 2-8.59.98-3.1 2.11-5.78 3.21-8.02"
        class="b" />
    <ellipse cx="69.911" cy="54.083" class="j" rx="2.66" ry="3.01" />
    <ellipse cx="107.531" cy="50.573" class="j" rx="2.66" ry="3.01" />
</svg>