<?xml version="1.0" encoding="UTF-8" standalone="no"?>
<svg id="svg102" width="16" height="16" version="1.1" viewBox="0 0 191.92706 279.26205"
    sodipodi:docname="mummy_thicklines.svg" inkscape:version="1.2.2 (b0a8486541, 2022-12-01)"
    xmlns:inkscape="http://www.inkscape.org/namespaces/inkscape"
    xmlns:sodipodi="http://sodipodi.sourceforge.net/DTD/sodipodi-0.dtd" xmlns="http://www.w3.org/2000/svg"
    xmlns:svg="http://www.w3.org/2000/svg">
    <sodipodi:namedview id="namedview53" pagecolor="#ffffff" bordercolor="#666666" borderopacity="1.0"
        inkscape:showpageshadow="2" inkscape:pageopacity="0.0" inkscape:pagecheckerboard="0"
        inkscape:deskcolor="#d1d1d1" showgrid="false" inkscape:zoom="46.4375" inkscape:cx="7.8061911"
        inkscape:cy="11.047106" inkscape:window-width="2514" inkscape:window-height="1409" inkscape:window-x="46"
        inkscape:window-y="0" inkscape:window-maximized="1" inkscape:current-layer="svg102" />
    <defs id="defs4">
        <style id="style2">
            .b {
                fill: none
            }

            .b,
            .d,
            .f,
            .i {
                stroke: #231f20;
                stroke-miterlimit: 10
            }

            .b,
            .i {
                stroke-width: 3px
            }

            .j {
                fill: #fff
            }

            .d,
            .f {
                stroke-width: 2.63px
            }

            .d,
            .l {
                fill: #c5c6c8
            }

            .m {
                fill: #231f20
            }

            .f,
            .i {
                fill: #f8faf9
            }
        </style>
    </defs>
    <path id="path6"
        d="m 179.56126,121.19257 c -2.64,6.06 -2.12,9.32 -1.05,11.19 0.58,1.02 1.84,2.55 3.13,5.5 0.41,0.94 0.8,1.99 1.14,3.18 0.43,1.46 1.04,3.58 1.08,6.32 0.05,3.03 -0.62,5.24 -4,13.87 -1.61,4.12 -3.58,7.19 -3.12,7.83 0.27,0.37 0.95,-0.61 2.51,-0.57 1.26,0.03 2.35,0.71 2.58,0.85 0.92,0.58 0.97,0.97 1.63,1.13 0.8,0.19 1.06,-0.3 2.1,-0.47 1.46,-0.24 1.86,0.59 2.64,0.28 1.15,-0.44 1.61,-2.7 2.03,-4.72 2.22,-10.54 2.17,-8.65 2.44,-11.13 0.79,-7.14 0.07,-11.8 0.07,-11.8 -0.8,-5.86 -2.48,-5.85 -3.13,-11.09 -0.46,-3.68 0,-6.77 0.43,-8.77"
        class="d" />
    <path id="path8"
        d="m 62.631263,193.37257 c 0.65,1.28 1.32,2.86 1.85,4.7 0.79,2.69 1.04,5.1 1.1,6.96 0.78,1.98 2.08,5.27 2.66,6.75 4.1,10.4 6.13,15.7 5.42,20.15 -0.21,1.33 -0.71,3.42 -2.09,5.89 -2.52,-1.47 -5.68,-3.03 -6.58,-2.09 -0.61,0.64 0.47,1.76 0.07,3.39 -0.87,3.52 -7.18,4.54 -6.92,5.74 0.1,0.48 1.11,0.29 2.64,1.42 0.97,0.71 1.02,1.12 1.7,1.65 1.27,1 2.29,0.55 4.74,0.94 1.7,0.27 4.77,0.75 6.04,2.82 0.66,1.08 0.18,1.53 0.9,2.6 1.09,1.62 2.85,1.57 4.43,2.34 2.87,1.4 5.21,5.48 4.52,8.2 -0.83,3.25 -5.35,2.13 -11.63,7.61 -1.16,1.02 -1.91,1.85 -3.26,2.01 -2.8,0.33 -4.28,-2.7 -7.11,-2.26 -1.64,0.25 -1.29,1.29 -3.18,1.84 -3.27,0.95 -5.61,-1.79 -8.2,-0.42 -0.61,0.32 -0.72,0.6 -1.34,1.17 -4.45,4.09 -14.19,3.85 -17.82,1.34 -0.32,-0.22 -1.05,-0.78 -2.09,-0.84 -1.51,-0.09 -1.93,0.97 -3.6,1.42 -1.87,0.5 -3.63,-0.21 -5.61,-1 -1.06,-0.43 -1.08,-0.57 -3.01,-1.59 -4.24,-2.25 -4.86,-1.97 -6.2699996,-3.18 -0.64,-0.54 -2.79,-2.39 -3.01,-5.02 -0.26,-3.08 2.33,-4.81 1.34,-7.7 -0.25,-0.74 -0.39,-0.54 -0.84,-1.59 -1.15,-2.71 -0.74,-5.24 -0.59,-6.11 0.32,-1.82 0.7,-3.99 2.34,-4.94 1.2599996,-0.73 2.1599996,-0.09 3.0099996,-0.75 0.79,-0.62 1.3,-2.19 0.17,-6.27 1.24,-0.73 8.17,-4.82 10.37,-7.53 0.31,-0.38 0.56,-0.78 0.75,-1.25 0.79,-1.98 0,-4.04 -0.5,-5.1 0.18,-0.59 1.26,-4.01 4.18,-5.02 0.46,-0.16 1.36,-0.4 2.43,-0.17 1.53,0.34 2.02,1.39 2.62,1.15 0.72,-0.29 0.93,-2.14 0.37,-3.58 -0.38,-0.97 -0.8,-0.96 -1.33,-2.02 -0.82,-1.63 -0.83,-3.66 -0.28,-3.9 0.57,-0.24 1.37,1.56 2.16,1.36 1.12,-0.28 0.99,-4.24 0.94,-5.8 -0.06,-2.02 -0.11,-3.06 -0.67,-4.28 -0.86,-1.85 -1.75,-1.63 -2.86,-3.28 -2.2,-3.28 -1.18,-7.91 -0.67,-10.18 0.2,-0.91 0.43,-1.64 0.59,-2.1 -1.13,-1.1 -2.26,-2.19 -3.39,-3.29 -0.03,-2.37 -0.05,-4.75 -0.08,-7.12 -0.49,-0.65 -1.15,-1.61 -1.77,-2.87 -0.25,-0.5 -3.65,-7.6 -0.98,-10.56 0.98,-1.09 2.16,-0.92 2.46,-2.04 0.16,-0.62 -0.09,-1.07 -1.19,-3.48 -1.14,-2.49 -1.31,-2.98 -1.11,-3.18 0.2,-0.21 0.84,-0.16 2.86,1.11 -0.16,-1.49 -0.25,-3.15 -0.24,-4.93 0,-1.21 0.07,-2.35 0.16,-3.42 1.46,0.05 2.92,0.11 4.38,0.16 -1.88,-1.41 -2.17,-2.81 -2.24,-3.34 -0.11,-0.92 0.2,-1.32 1.99,-4.94 1.31,-2.64 1.76,-3.66 2.43,-3.64 0.79,0.03 1.03,1.51 1.65,1.47 0.73,-0.05 1.46,-2.24 1.47,-4.5 0.03,-3.98 -2.14,-5.26 -1.66,-7.74 0.23,-1.16 1.08,-2.8 4.19,-4.42 0.61,-0.4 1.81,-1.3 2.56,-2.91 0.98,-2.1 0.26,-3.99 0,-6.02 -0.27,-2.1 -0.15,-5.22 1.84,-9.36 41.57,-4.610004 55.79,2.46 60.279997,10.89 4.96,9.31 -2.31,19.59 -1.97,47.38 0.14,11.89 1.62,21.74 2.95,28.56"
        class="f" />
    <path id="path10"
        d="m 64.231263,197.22257 c -1.06,2.05 -2.33,5.22 -2.35,9.12 0,1.98 0.31,2.64 0.81,5.52 1.38,7.94 0.29,10.64 1.71,20.22 0.23,1.59 0.47,2.87 0.61,3.64 m -2.38,-42.35 c 0.25,-0.87 0.99,-3.13 2.38,-3.35 1.46,-0.22 2.89,1.92 4.12,3.98 1.94,3.26 4.61,8.45 7.16,16.11 -0.27,0.1 -3.04,1.23 -3.62,3.96 -0.27,1.26 0.04,2.33 0.23,2.83 0.81,2.18 2.8,3.02 3.17,3.17 0.62,-0.39 1.58,-0.84 2.72,-0.79 2.08,0.09 3.54,1.81 4.07,2.38 1.59,1.71 4.68,3.8 11.32,5.2 l 1.98,-1.32 c 2.08,1.18 2.82,2.43 3.12,3.36 0.31,1 0.02,1.35 0.45,2.15 0.969997,1.78 3.289997,1.69 3.389997,2.6 0.04,0.39 -0.31,0.97 -2.04,1.81 1.29,2.25 2.72,3.59 3.85,4.41 1.29,0.95 2.45,1.41 2.72,2.6 0.27,1.19 -0.69,1.61 -0.57,2.94 0.12,1.28 1.12,2.14 3.06,3.73 0.85,0.71 2.13,1.66 3.85,2.6 l -3.39,3.96 c 1.63,2.7 3.26,3.58 4.53,3.85 1.52,0.32 2.86,-0.19 3.73,0.68 0.69,0.69 0.69,1.83 0.57,2.72 3.28,0.23 6.56,0.45 9.84,0.68 v -2.38 c 2.96,-0.26 6.69,-0.25 10.86,0.57 1.6,0.31 3.08,0.7 4.41,1.13 -0.02,-0.38 0.01,-0.89 0.34,-1.24 0.72,-0.79 2.4,-0.33 2.83,-0.23 4.26,1.02 13.4,-2.3 16.61,-3.64 4.4,-1.84 7.63,-3.19 9.33,-6.64 0.4,-0.82 1.8,-3.65 0.62,-6.84 -1,-2.72 -4.99,-3.27 -4.77,-4.77 0.11,-0.72 1,-0.86 1.02,-1.64 0.02,-1.02 -1.48,-1.82 -2.36,-2.29 -2.57,-1.38 -3.82,-0.84 -4.92,-2.02 -1,-1.07 -0.33,-1.88 -1.01,-3.1 -2.38,-4.25 -15.65,-3.46 -17.19,-3.37 -0.6,0.04 -2.01,0.14 -3.03,-0.74 -1.25,-1.07 -0.57,-2.44 -1.35,-4.04 -1.64,-3.36 -6.89,-1.95 -8.76,-5.46 -0.87,-1.63 0.2,-2.05 -0.74,-3.77 -1.64,-3.01 -5.23,-2.32 -6.61,-5.26 -0.72,-1.54 0.03,-2.22 -0.88,-3.64 -1.16,-1.81 -3.36,-2.26 -4.36,-2.51 -3.91,-1.01 -6.63,-3.61 -10.3,-7.1 -1.58,-1.5 -5.69,-6.11 -5.68,-16.87"
        class="f" />
    <path id="path12"
        d="m 125.62126,233.25257 c -0.76,0.9 -1.86,2.34 -2.88,4.27 -0.51,0.98 -2.91,5.72 -3.16,13.29 -0.16,4.96 0.7,7.98 -0.8,8.77 -0.77,0.41 -1.76,0.01 -3.31,-0.61 -1.4,-0.56 -3.93,-1.58 -4.09,-3.15 -0.2,-1.98 3.57,-3.07 3.26,-4.74 -0.2,-1.06 -1.76,-0.85 -4.12,-2.95 -1.02,-0.91 -2.19,-1.98 -2.32,-3.57 -0.1,-1.11 0.35,-2.03 0.67,-2.56 0.21,-0.52 0.53,-1.25 1.02,-2.06 2.08,-3.48 5.1,-5.1 7.43,-6.3 2.61,-1.35 5.66,-2.93 7.4,-1.66 0.5,0.37 0.76,0.88 0.91,1.27 z m -116.6499966,23.45 c 0.45,-1.28 1.4799996,-1.99 2.4799996,-2.65 4.41,-2.92 10.43,-2.81 10.67,-1.86 0.07,0.28 -0.41,0.47 -1.15,1.19 -1.44,1.42 -1.9,2.99 -2.62,5.62 -1.18,4.27 -1.14,7.69 -1.12,8.49 0.05,2.2 0.34,4.04 0.63,5.37 -0.34,-0.09 -0.88,-0.23 -1.52,-0.43 -3.13,-0.98 -5.4,-1.69 -6.8999996,-3.66 -0.26,-0.35 -1.43,-1.89 -1.4,-3.91 0.02,-1.55 0.72,-1.73 0.98,-3.66 0.3,-2.29 -0.57,-2.98 -0.04,-4.5 z m 55.4399996,-57.51 c 0.33,0.07 -0.33,2.28 0.21,5.62 0.43,2.65 1.37,4.49 1.96,5.69 2.18,4.43 5.26,10.68 6,16.26 0.29,2.19 0.39,5.52 -0.87,9.81 -2.15,-0.8 -4.29,-1.59 -6.44,-2.39 -0.36,-5.6 -0.57,-9.94 -0.7,-12.9 -0.19,-4.6 -0.2,-6.28 -0.87,-9.01 -0.64,-2.58 -1.18,-3.3 -1.3,-5.39 -0.25,-4.22 1.57,-7.78 2,-7.69 z m 96.709997,30.71 c 0.86,0.35 0.2,1.79 1.61,3.32 0.91,0.99 1.7,0.95 5.46,2.69 1.88,0.87 2.28,1.15 2.24,1.39 -0.08,0.47 -1.8,0.38 -3.63,0.74 -1.53,0.3 -2.84,0.86 -6,2.86 -6.27,3.97 -9.41,5.96 -12.07,9.31 -2.57,3.23 -3.59,6.01 -4.09,5.8 -0.53,-0.21 0.13,-3.44 1.1,-6.14 1.21,-3.36 2.67,-5.27 6.52,-10.36 5.71,-7.53 7.65,-10.11 8.86,-9.62 z m -39.93,-22.06 c -2.77,-0.02 -4.86,0.48 -6.22,0.92 -7.29,2.35 -15.269997,9.89 -18.159997,14.43 -0.37,0.57 -1.34,2.18 -2.98,2.48 -0.9,0.16 -1.55,-0.16 -3.23,-0.77 -3.76,-1.37 -3.39,-0.82 -4.53,-1.46 -2.97,-1.66 -3.04,-4 -5.84,-4.69 -0.81,-0.2 -1.3,-0.13 -1.38,-0.38 -0.08,-0.27 0.22,-1.12 7.31,-4.21 9.72,-4.23 14.579997,-6.35 21.399997,-7.01 3.16,-0.3 7.88,-0.43 13.63,0.69 z"
        class="l" />
    <path id="path14"
        d="m 104.15126,185.51257 c -13.289997,-0.17 -21.159997,4.6 -24.629997,7.17 -0.73,0.54 -7.9,5.9 -6.83,8.19 1.14,2.45 11.09,0.2 20.53,-1.94 a 189.13,189.13 0 0 0 15.769997,-4.3 m -79.259997,-52.28 c 2.39,3.78 7.97,11.33 17.75,14.74 13.32,4.65 27.29,-0.86 27.19,-2.82 -0.09,-1.7 -10.69,-0.05 -23.6,-6.16 -7.14,-3.38 -12.26,-7.85 -15.61,-11.3 m 1.3,-12.81 c 1.24,1.26 3.41,3.14 6.59,4.5 3.92,1.68 7.43,1.73 9.31,1.63 m 20.96,34.93 c -5.38,0.51 -12.36,0.67 -20.36,-0.49 a 85.575,85.575 0 0 1 -22.73,-6.61 c 2.25,2.31 5.65,5.51 10.22,8.74 6.23,4.4 12.6,8.69 21.24,9.68 3.19,0.36 8.43,0.47 14.93,-1.72 l 0.55,-0.19"
        class="b" />
    <path id="path16"
        d="m 59.041263,182.80257 c 7.25,-0.45 14.53,-0.13 21.73,-0.29 7.14,-0.14 14.22,-1.16 21.169997,-2.8 l 0.55,-0.13 c 0.6,0.5 1.22,1.06 1.9,1.41 0.02,0.02 0.04,-0.02 -0.19,0.06 -0.1,0.04 -0.25,0.17 -0.3,0.3 -0.06,0.14 -0.04,0.2 -0.04,0.21 0.01,0.03 0,-0.07 -0.01,-0.15 l -0.12,-0.64 c -0.31,-1.35 -0.04,-2.69 0.07,-4.04 0.03,-0.85 -0.01,-1.71 -0.13,-2.58 0.54,1.21 0.87,2.54 0.95,3.88 -0.03,1.28 0.56,2.25 0.83,3.47 -0.17,2.22 -2.8,0.62 -3.81,-0.02 l 0.88,0.15 c -13.889997,5.41 -29.189997,4.14 -43.479997,1.16 z"
        class="m" />
    <path id="path18"
        d="m 49.741263,272.93257 c -0.92,-0.78 -2.34,-2.2 -3.27,-4.37 -1.56,-3.66 -0.7,-7.03 -0.22,-8.91 0.45,-1.78 2.02,-7.9 7.25,-10.4 1.87,-0.9 4.31,-0.93 9.19,-1 3.82,-0.05 5.14,0.35 6.09,0.77 2.53,1.13 3.98,3.12 4.7,4.32 -1.72,-1.14 -3,-1.2 -3.76,-1.11 -5.15,0.62 -7.53,10.6 -8.08,12.89 -0.75,3.15 -0.89,5.83 -0.89,7.58"
        class="b" />
    <path id="path20"
        d="m 58.151263,244.86257 c -2.85,-0.36 -7.96,-0.62 -13.78,1.4 -2.51,0.87 -6.09,2.11 -9.35,5.42 -5.04,5.13 -5.71,11.57 -5.98,14.11 -0.42,4.06 0.17,7.42 0.72,9.57"
        class="b" />
    <path id="path22"
        d="m 44.371263,246.26257 c -1.03,-1.03 -2.69,-2.33 -4.87,-2.55 -1.57,-0.15 -2.29,0.18 -5.98,1.66 -4.65,1.87 -5.08,1.06 -7.19,2.49 -1.75,1.19 -2.59,2.51 -4.15,4.98 -2.68,4.24 -3.61,8.07 -4.1,10.13 -0.49,2.08 -0.94,4.09 -0.77,6.81 0.12,1.97 0.53,3.58 0.89,4.7"
        class="b" />
    <path id="path24"
        d="m 8.6212634,257.83257 c 0.7,-0.85 1.6199996,-1.77 2.8199996,-2.6 4.26,-2.94 9,-2.6 10.74,-2.38 m -9.16,-8.74 c 3.78,-0.9 8.1,-1.68 12.9,-2.11 8.1,-0.73 15.21,-0.26 20.9,0.54"
        class="b" />
    <path id="path26"
        d="m 27.621263,241.86257 a 26.568,26.568 0 0 1 -4.06,-12.67 m 4.56,-9.39 a 51.28,51.28 0 0 0 6.23,10.9 c 5.53,7.39 11.93,11.75 16.19,14.14 m -17,-27.48 c 3.4,3.16 6.61,5.51 9.2,7.2 6.69,4.37 12.7,6.61 16.01,7.68 2.06,0.67 3.82,1.13 5.12,1.44"
        class="b" />
    <path id="path28" d="m 33.141263,212.64257 c 8.28,1.45 16.19,2.02 24.57,1.52 -7.33,4.69 -17.83,3.92 -24.57,-1.52 z"
        class="m" />
    <path id="path30"
        d="m 33.591263,201.81257 c 1.49,-0.37 3.54,-0.77 6.02,-0.94 5.34,-0.35 9.42,0.63 11.57,1.17 2.54,0.64 5.98,1.76 9.77,3.83 m 1.06,-13.04 c 0.14,0.52 0.38,1.71 -0.26,2.65 -0.47,0.69 -1.21,0.94 -1.49,1.02 -7.25,2.1 -16.03,-2.19 -16.03,-2.19 -4.8,-2.4 -5.47,-3.91 -14.49,-8.88 -0.88,-0.48 -1.6,-0.87 -2.09,-1.13"
        class="b" />
    <path id="path32"
        d="m 52.361263,185.31257 c -10.27,2.74 -21.46,-3.08 -27.05,-11.73 2.28,1.27 4.33,2.7 6.48,3.93 6.38,3.9 13.16,6.46 20.56,7.8 z m -19.39,-18.61 c 6.05,4.57 11.39,9.68 16.19,15.56 -7.26,-2.51 -13.38,-8.41 -16.19,-15.56 z"
        class="m" />
    <path id="path34" d="m 144.56126,256.91257 a 39.38,39.38 0 0 1 7.05,-8.99 c 7.01,-6.64 14.79,-9.04 18.88,-9.97"
        class="b" />
    <path id="path36"
        d="m 160.98126,230.18257 a 53.034,53.034 0 0 0 -9.17,9.67 c -2.77,3.78 -5.57,7.68 -6.74,13.49 a 27.31,27.31 0 0 0 -0.41,7.97 m -0.2,-33.21 c -3.73,4.28 -6.38,8.23 -8.17,11.24 -2.28,3.82 -4.26,7.17 -5.62,12.06 -1.12,4.02 -1.39,7.5 -1.43,9.91 m -9.71,-0.31 a 39.69,39.69 0 0 1 -0.2,-7.97 c 0.09,-1.26 0.48,-5.75 2.55,-11.44 1.71,-4.7 3.36,-9.06 7.56,-12.87 1.69,-1.54 5.23,-4.27 10.99,-5.58"
        class="b" />
    <path id="path38"
        d="m 107.09126,241.88257 c 1.23,-1.27 2.75,-2.6 4.58,-3.87 5.43,-3.75 10.93,-4.97 14.41,-5.41 m -24.22,1.84 c 1.97,-1.35 4.42,-2.74 7.36,-3.88 8.39,-3.25 16.05,-2.57 20.23,-1.84 m -29.43,-0.01 c 2,-1.33 4.04,-2.66 6.13,-3.98 3.63,-2.31 7.21,-4.48 10.73,-6.54"
        class="b" />
    <path id="path40"
        d="m 131.28126,216.86257 c -5.58,0.38 -10.44,0.87 -14.41,1.33 -10.45,1.21 -13.91,2.17 -17.269997,4.5 -2.42,1.68 -4.14,3.62 -4.29,3.47 -0.21,-0.21 2.88,-4.08 6.739997,-7.66 4.31,-4 9.6,-8.91 16.96,-9.81 2.99,-0.37 5.5,0.03 5.52,-0.2 0.03,-0.33 -4.92,-1.4 -9.91,-1.53 -2.23,-0.06 -7.79,-0.06 -20.019997,4.19 a 141.42,141.42 0 0 0 -18.96,8.19"
        class="b" />
    <path id="path42"
        d="m 162.75126,142.04257 c 0.66,0.61 0.81,0.86 1.34,1.41 4.05,4.18 9.97,5.03 10.39,5.08 1.28,0.17 4.25,0.52 7.74,-0.72 1.43,-0.51 6,-2.14 8.31,-6.98 2.49,-5.21 0.49,-10.19 0.15,-11.01 0.18,0.06 0.43,0.11 0.63,0 0.85,-0.44 0.61,-3.29 -0.42,-5.56 -1.12,-2.46 -2.29,-2.28 -2.8,-4.41 -0.37,-1.55 0.08,-2.36 -0.62,-2.98 -0.72,-0.63 -1.5,-0.04 -3.4,-0.53 -0.73,-0.19 -2.23,-0.58 -2.56,-1.57 -0.25,-0.75 0.34,-1.35 0.61,-2.09 0.99,-2.77 -2.86,-6.53 -3.34,-7.01 -4.06,-3.98 -9.83,-3.71 -11.15,-3.62 -0.24,-0.57 -0.6,-1.35 -1.13,-2.230004 -1.34,-2.23 -3.18,-5.33 -5.98,-5.63 -1.97,-0.21 -4.03,0.99 -4.74,1.41 -1.04,0.6 -0.99,0.83 -1.68,1.08 -2.11,0.77 -3.32,-1.05 -5.47,-0.88 -2.18,0.17 -3.79,2.25 -5.54,4.510004 -1.82,2.34 -2.12,3.87 -3.77,4.32 -0.63,0.17 -1.06,0.07 -2.9,-0.42 -6.22,-1.66 -7.64,-2.18 -8.87,-1.4 -0.96,0.61 -1.03,1.52 -1.95,1.59 -1.05,0.09 -1.96,-1.03 -2.37,-1.54 -1.59,-1.97 -0.81,-3.200004 -1.91,-4.110004 -1.42,-1.18 -3.04,0.62 -6.25,-0.23 -2.12,-0.57 -2.16,-1.55 -3.99,-1.63 -0.12,0 -2.98,-0.1 -4.31,1.74 -0.75,1.03 -0.41,1.830004 -1.31,2.580004 -0.79,0.66 -1.54,0.46 -2.48,0.71 -2.45,0.66 -3.649997,3.69 -3.879997,4.28 -0.87,2.21 0.7,2.93 2.149997,9.29 0.54,2.39 0.54,3.14 1.22,5.17 0.91,2.7 1.37,4.05 2.53,5.03 1.87,1.58 5.22,2.2 7.86,1.32 1.1,-0.37 2.01,-0.98 2.95,-0.56 0.22,0.1 0.78,0.43 1.44,2.19 0.59,1.56 0.71,2.81 0.79,3.41 0.35,2.65 1.37,4.55 2.61,6.83 1.16,2.14 1.76,3.23 3.06,3.77 1.01,0.42 1.51,0.13 3.18,0.38 1.87,0.28 2.51,0.84 4.26,1.47 1.6,0.58 5.05,1.83 8.52,0.71 0.85,-0.28 2.41,-0.78 3.62,-2.2 2.41,-2.84 0.65,-6.08 2.79,-7.65 0.45,-0.33 0.37,-0.07 4.7,-0.71 2.83,-0.41 3.43,-0.61 4.19,-0.18 1.3,0.73 0.62,1.91 2,3.63 1.49,1.86 3,1.4 5.76,3.94 z"
        class="i" />
    <path id="path44"
        d="m 114.37126,101.82257 c -0.5,0.54 -0.98,1.35 -1.32,5.23 -0.24,2.66 -0.07,2.98 0.11,3.04 0.12,0.04 0.37,0.02 1.24,-1.11 1.16,-1.51 1.4,-2.37 1.92,-3.15 1.65,-2.51 4.83,-2.23 4.85,-3.52 0,-0.66 -0.81,-1.15 -1.32,-1.45 -1.93,-1.160004 -4.14,-0.02 -4.29,0.06 -0.66,0.35 -1.06,0.78 -1.18,0.91 z m 57.48,5.19 c 1.55,0.11 4.3,0.54 7.09,2.34 1.32,0.85 2.32,1.8 3.04,2.6 0,0.97 -0.09,2.2 -0.63,2.37 -0.54,0.17 -1.28,-0.81 -1.63,-1.24 -3.3,-4.07 -9.2,-5.36 -8.96,-5.99 0.04,-0.1 0.25,-0.19 1.08,-0.08 z m -12.04,-3.43 c -0.61,-0.36 -1.48,-0.76 -2.56,-0.83 -2.18,-0.14 -3.51,1.16 -3.83,0.8 -0.4,-0.45 1.09,-3.12 3.65,-4.550004 0.51,-0.29 2.84,-1.51 5.69,-0.86 0.49,0.11 2.86,0.65 3.99,2.610004 0.17,0.3 0.69,1.2 0.35,1.72 -0.36,0.55 -1.42,0.32 -2.6,0.28 -1.1,-0.04 -2.7,0.08 -4.7,0.84 z m -20.82,27.68 c -0.64,-0.3 -6.13,-2.85 -7.48,-1.18 -0.37,0.45 -0.26,1.25 -0.04,2.82 0.32,2.21 0.57,3.98 1.82,5.82 0.85,1.25 1.89,2.79 3.8,3.16 2.56,0.5 4.59,-1.51 5,-1.92 0.1,-0.1 2.21,-2.22 1.59,-3.46 -0.38,-0.76 -1.46,-0.49 -2.6,-1.22 -1.36,-0.87 -1.88,-2.56 -2.09,-4.03 z"
        class="l" />
    <path id="path46"
        d="m 143.25126,136.41257 c 0,2.26 -1.22,4.27 -3.11,5.13 -0.09,0.04 -2.27,0.99 -4.41,-0.1 -1.84,-0.94 -2.64,-2.87 -3.21,-4.8 -0.74,-2.53 -1.9,-7.84 -0.12,-18.93 1.02,-6.32 2.98,-8.96 3.68,-10.02 1.56,-2.35 3.28,-3.98 4.54,-5.01 a 29.682,29.682 0 0 0 -3.49,8.95 c -0.81,3.82 -0.61,6.58 -0.07,12.09 0.33,3.36 0.94,7.42 3.13,10.37 0.46,0.62 1.06,1.28 1.99,1.69 1.82,0.81 3.62,0.08 5.3,-0.37 1.78,-0.47 4.36,-0.88 7.75,-0.51"
        class="b" />
    <path id="path48"
        d="m 138.36126,131.39257 a 34.307,34.307 0 0 1 -6.71,-1.49 m 35.94,-28.92 c -0.5,-0.59 -2.46,-2.760004 -5.55,-3.010004 -3.02,-0.25 -5.24,1.47 -5.91,2.030004 -4.64,3.88 -4.56,10.9 -4.47,18.85 0,0.63 0.12,7.46 2.15,9.27 0.18,0.16 0.93,0.78 1.15,1.79 0.18,0.82 -0.12,1.34 -0.22,2.07 -0.17,1.15 0.28,2.06 1.19,3.89 0.83,1.68 1.53,3.09 3.03,4.39 1.25,1.09 3.39,2.4 4.15,1.78 0.47,-0.38 0.02,-1.21 0.18,-2.44 0.23,-1.69 1.46,-2.87 3,-4.12 7.66,-6.2 15.66,-8.63 16.58,-8.9 1.59,-0.47 3.23,-0.86 4.78,-0.06 1.98,1.01 2.62,3.32 2.81,4.17"
        class="b" />
    <path id="path50"
        d="m 188.30126,127.23257 c -3.53,1.3 -6.22,2.79 -8.02,3.9 -3.83,2.38 -8.99,5.54 -10.67,11.1 -0.44,1.47 -0.55,2.76 -0.56,3.63 0.1,-1.12 0.46,-3.31 2.13,-5.08 0.66,-0.7 1.52,-1.32 4.34,-2.32 5.21,-1.84 8.21,-2.9 11.55,-1.69 0.9,0.33 2.13,0.93 3.42,2.12 m -5.63,-22.79 c -1.43,0.1 -3.6,0.3 -6.2,0.75 -5.76,1.01 -13.75,2.41 -19.96,8.43 -1.02,0.99 -2.39,2.49 -3.74,4.62"
        class="b" />
    <path id="path52"
        d="m 182.46126,112.36257 c -1.11,-1.27 -4.34,-4.61 -9.24,-5.11 -6.27,-0.64 -10.85,3.84 -13.42,6.34 -4.69,4.57 -6.4,9.91 -7.06,12.75 m 17.08,-23.79 a 41.528,41.528 0 0 0 -17.24,4"
        class="b" />
    <path id="path54"
        d="m 159.68126,103.94257 a 5.86,5.86 0 0 0 -1.92,-0.86 c -1.91,-0.48 -3.52,0.14 -4.11,0.41 m 16.55,3.66 c 2.15,0.84 4.97,2.19 7.87,4.42 2.04,1.57 3.63,3.18 4.82,4.58 m -60.14,25 c -0.89,-1.35 -2.09,-3.41 -3.09,-6.08 -0.91,-2.43 -3.92,-10.87 -0.45,-20.37 2.12,-5.8 5.77,-9.57 8.09,-11.57 m -12.67,22.79 c -0.4,-1.33 -0.93,-3.24 -1.38,-5.59 -1.47,-7.76 -0.59,-12.6 -0.08,-14.73 0.97,-4.08 2.11,-4.76 2.48,-4.96 2.76,-1.440004 6.65,1.63 6.97,1.88"
        class="b" />
    <path id="path56"
        d="m 121.63126,102.10257 c -1.38,0.6 -4.11,2.02 -6.38,4.97 a 16.37,16.37 0 0 0 -2.83,5.88 m -10.51,3.95 a 48.836,48.836 0 0 1 2.93,-14.47"
        class="b" />
    <path id="path58"
        d="m 27.171263,71.872566 c 0.17,0.51 1.01,2.42 1.73,5.41 0.63,2.6 0.87,4.8 0.97,6.27 5.23,-2.77 13.75,-6.57 24.69,-8.14 31.03,-4.46 55.179997,12.93 64.619997,2.69 1.27,-1.38 2.88,-3.91 3.04,-8.74 -0.93,-1.06 -2.18,-2.67 -3.3,-4.82 -0.5,-0.97 -2.59,-5.14 -2.77,-11.06 -0.05,-1.72 0.04,-4.18 0.72,-7.08 -11.89,-7.54 -22.339997,-9.35 -28.939997,-9.74 -36.22,-2.17 -61.81,32.07 -60.78,35.22 z"
        style="fill:#dcd0ff;stroke:#231f20;stroke-width:2.63px;stroke-miterlimit:10" />
    <ellipse id="ellipse60" cx="60.685692" cy="62.02882" rx="11.68" ry="13.51"
        style="fill:#ffffff;stroke:#231f20;stroke-width:2.63px;stroke-miterlimit:10" transform="rotate(-6.86)" />
    <ellipse id="ellipse62" cx="97.531693" cy="63.027821" rx="9.6000004" ry="13.51"
        style="fill:#ffffff;stroke:#231f20;stroke-width:3px;stroke-miterlimit:10" transform="rotate(-6.86)" />
    <path id="path64"
        d="m 47.191263,56.832566 c 5.4,3.36 9.31,11.16 5.19,16.9 -0.36,-3.09 -0.78,-5.71 -1.88,-8.5 -1.01,-2.81 -2.6,-5.36 -3.31,-8.41 z"
        class="m" />
    <path id="path66"
        d="m 32.601263,63.412566 c 0.83,0.46 4.21,2.45 5.75,6.77 1.54,4.35 0.14,8.04 -0.22,8.91 -2.75,1.12 -5.51,2.25 -8.26,3.37 0.15,-1.04 0.24,-2.22 0.21,-3.53 -0.09,-3.48 -1.05,-6.28 -1.89,-8.16 0.46,-1.26 1.15,-2.77 2.16,-4.37 0.76,-1.19 1.54,-2.19 2.26,-3 z"
        style="fill:#afa5d6" />
    <path id="path68"
        d="m 104.85126,43.912566 c -2.6,2.51 -3.91,7.85 -2.19,12.27 1.26,3.25 4.43,6.69 7.26,5.89 2.14,-0.61 3.13,-3.37 3.66,-4.83 1.71,-4.74 1.02,-11.19 -1.99,-13.82 -0.32,-0.28 -1.32,-1.13 -2.72,-1.25 -2.02,-0.18 -3.51,1.25 -4.02,1.74 z m -36.639997,3.45 c -3.29,2.33 -5.26,7.58 -3.55,12.11 1.25,3.33 4.75,6.97 8.18,6.34 2.59,-0.47 3.99,-3.16 4.72,-4.58 2.4,-4.62 2.08,-11.1 -1.3,-13.92 -0.35,-0.3 -1.48,-1.21 -3.14,-1.43 -2.39,-0.31 -4.27,1.02 -4.91,1.48 z"
        style="fill:#776faa;stroke:#231f20;stroke-width:3px;stroke-miterlimit:10" />
    <ellipse id="ellipse70" cx="60.685692" cy="62.02882" class="b" rx="11.68" ry="13.51" transform="rotate(-6.86)" />
    <path id="path72"
        d="m 28.971263,75.782566 c -3.87,5.26 -7.21,9.21 -9.65,11.94 -2.17,2.44 -4.36,4.76 -5.94,8.68 -0.59,1.46 -1.45,3.58 -1.51,6.320004 -0.07,3.03 0.86,5.24 5.57,13.87 2.24,4.12 4.99,7.19 4.34,7.83 -0.38,0.37 -1.32,-0.61 -3.49,-0.57 -1.75,0.03 -3.28,0.71 -3.59,0.85 -1.28,0.58 -1.35,0.97 -2.26,1.13 -1.11,0.19 -1.48,-0.3 -2.9299996,-0.47 -2.03,-0.24 -2.58,0.59 -3.68,0.28 -1.6,-0.44 -2.24,-2.7 -2.83,-4.72 -3.08000003,-10.54 -3.02000003,-8.65 -3.40000003,-11.13 -0.85999997,-5.63 -1.31999997,-8.65 -0.09,-11.800004 1.92000003,-4.9 6.39000003,-6.11 11.31999963,-9.44 4.43,-3 10.04,-8.26 14.59,-18.16"
        class="d" />
    <path id="path74"
        d="m 114.80126,68.612566 c 3.07,0.49 5.57,1.05 7.23,1.45 0.04,1.07 0,2.63 -0.45,4.43 -0.99,4.04 -3.25,6.28 -4.79,8.32 -0.89,1.18 -2.36,5.63 -5.24,14.47 -3.79,11.600004 -4.06,12.440004 -5.24,14.110004 -3.48,4.89 -7.999997,7.27 -10.399997,8.5 -1.2,0.61 -7.28,3.63 -15.82,3.62 -9.45,-0.01 -16.43,-3.72 -22.88,-7.15 -1.75,-0.93 -5.36,-2.95 -9.48,-6.17 -2.67,-2.09 -4.93,-3.89 -7.3,-6.86 -1.78,-2.24 -2.74,-4.060004 -4.6,-7.560004 -2.14,-4.02 -1.58,-6.98 -4.26,-9.03 -1.01,-0.78 -1.84,-1 -1.93,-1.73 -0.21,-1.66 3.6,-3.43 5.9,-4.45 11.17,-4.94 17.57,-6.26 17.57,-6.26 13.71,-2.82 20.56,-4.23 23.94,-4.69 13.35,-1.81 24.059997,-3.18 37.769997,-0.98 z m 2.05,-24.4 c -1.84,-0.48 -4.53,-1.11 -7.83,-1.61 -3.26,-0.5 -19.439997,-2.78 -39.869997,3.76 -8.24,2.64 -19.28,6.17 -29.74,16.14 -5,4.76 -8.34,9.52 -10.45,13.01 a 37.73,37.73 0 0 1 -5.37,-8.9 c -4.66,-10.94 -2.8,-21.38 -1.58,-27.84 1.09,-5.76 1.89,-9.98 4.75,-14.87 6.68,-11.44 18.28,-15.7499998 25.31,-18.3499998 3.53,-1.31 10.99,-3.72 20.88,-3.96 9.97,-0.25 22.72,-0.57 31.959997,8.08 7.46,6.9799998 9.58,16.9599998 10.76,22.4699998 1.04,4.89 1.22,9.09 1.18,12.09 z"
        class="i" />
    <path id="path76"
        d="m 24.951263,68.452566 c 4.67,-7.25 9.37,-12.42 12.69,-15.72 5.73,-5.69 22.98,-21.32 49.21,-25.51 4.83,-0.77 8.82,-0.97 11.28,-1.03 m -76.96,26.02 c 3.57,-7.26 7.65,-12.28 10.62,-15.44 7.06,-7.51 14.74,-11.84 22.26,-16.09 3.66,-2.07 6.78,-3.61 8.92,-4.62 M 101.84126,7.2125662 c -3.759997,0 -8.049997,0.36 -12.689997,1.41 -1.2,0.27 -2.36,0.57 -3.46,0.9"
        class="b" />
    <path id="path78"
        d="m 55.071263,4.5325662 c 4.17,-0.02 8.68,0.23 13.46,0.9 19.91,2.79 35.009997,11.5099998 44.449997,18.3799998 m 3,11.69 c -9.42,-5.96 -24.459997,-13.85 -44.369997,-18.02 a 134.24,134.24 0 0 0 -37.83,-2.44 m 2.97,81.7 c 4.84,-2.85 11.1,-6.06 18.7,-8.84 6.76,-2.48 21.56,-7.73 40.98,-6.8 8.269997,0.39 15.099997,1.8 19.889997,3.06"
        class="b" />
    <path id="path80"
        d="m 87.061263,81.112566 c -5.83,1.85 -15.33,5.72 -24.54,13.95 a 66.958,66.958 0 0 0 -13.13,16.040004 M 111.10126,95.132566 c -8.86,0.06 -16.249997,0.99 -21.719997,1.94 -9.03,1.57 -20.27,3.630004 -32.24,10.970004 -2.53,1.55 -4.54,3 -5.9,4.03 m 2.4,1.42 c 1.08,-0.53 2.69,-1.25 4.7,-1.94 6.46,-2.21 9.6,-1.45 23.51,-1.64 8.46,-0.11 12.18,-0.46 17.98,1.27 1.849997,0.55 3.339997,1.14 4.329997,1.57"
        class="b" />
    <path id="path82"
        d="m 123.29126,178.53257 c 0.7,0.8 0.85,1.1 1.4,1.81 4.23,5.4 11.07,7.12 11.56,7.24 1.48,0.35 4.92,1.14 9.16,0.11 1.74,-0.42 7.3,-1.77 10.61,-7.16 3.56,-5.8 1.83,-11.89 1.53,-12.89 0.21,0.1 0.48,0.18 0.74,0.08 1.05,-0.41 1.12,-3.78 0.19,-6.57 -1.01,-3.03 -2.41,-2.96 -2.74,-5.52 -0.25,-1.86 0.38,-2.76 -0.36,-3.57 -0.77,-0.83 -1.75,-0.23 -3.92,-1.04 -0.83,-0.31 -2.54,-0.95 -2.8,-2.16 -0.2,-0.91 0.57,-1.54 0.97,-2.38 1.5,-3.12 -2.54,-8.01 -3.06,-8.63 -4.27,-5.16 -11.07,-5.56 -12.63,-5.61 -0.21,-0.69 -0.54,-1.65 -1.05,-2.75 -1.29,-2.79 -3.07,-6.65 -6.32,-7.33 -2.28,-0.48 -4.84,0.67 -5.73,1.07 -1.29,0.58 -1.26,0.85 -2.1,1.06 -2.57,0.64 -3.76,-1.64 -6.31,-1.7 -2.57,-0.06 -4.72,2.18 -7.05,4.6 -2.42,2.52 -2.97,4.28 -4.95,4.6 -0.759997,0.12 -1.249997,-0.05 -3.339997,-0.85 -7.09,-2.71 -8.69,-3.5 -10.23,-2.74 -1.2,0.59 -1.39,1.65 -2.48,1.63 -1.25,-0.03 -2.17,-1.45 -2.58,-2.09 -1.62,-2.5 -0.56,-3.86 -1.73,-5.06 -1.52,-1.55 -3.64,0.36 -7.3,-1.04 -2.42,-0.93 -2.34,-2.08 -4.47,-2.41 -0.14,-0.02 -3.48,-0.48 -5.27,1.5 -1,1.11 -0.71,2.09 -1.85,2.86 -1,0.67 -1.86,0.35 -2.99,0.53 -2.95,0.47 -4.73,3.88 -5.07,4.54 -1.3,2.48 0.46,3.52 1.38,11.16 0.34,2.87 0.24,3.75 0.8,6.22 0.74,3.28 1.1,4.92 2.35,6.21 2,2.08 5.85,3.23 9.05,2.52 1.34,-0.3 2.48,-0.9 3.53,-0.29 0.24,0.14 0.86,0.6 1.42,2.75 0.5,1.9 0.49,3.38 0.51,4.1 0.08,3.15 1.05,5.5 2.22,8.33 1.09,2.65 1.67,4 3.12,4.8 1.13,0.62 1.75,0.34 3.68,0.84 2.16,0.56 2.84,1.29 4.81,2.25 1.81,0.88 5.69,2.76 9.9,1.88 1.03,-0.22 2.93,-0.62 4.519997,-2.13 3.18,-3.03 1.51,-7.05 4.21,-8.63 0.57,-0.33 0.45,-0.04 5.59,-0.25 3.37,-0.14 4.1,-0.29 4.93,0.3 1.43,1.01 0.5,2.31 1.9,4.51 1.52,2.36 3.35,2.01 6.27,5.33 z"
        class="i" />
    <path id="path84"
        d="m 71.511263,125.42257 c -0.65,0.58 -1.32,1.46 -2.2,5.97 -0.6,3.09 -0.45,3.49 -0.25,3.58 0.13,0.06 0.43,0.07 1.59,-1.14 1.55,-1.62 1.93,-2.61 2.63,-3.46 2.24,-2.74 5.94,-2.02 6.12,-3.53 0.09,-0.77 -0.81,-1.45 -1.37,-1.87 -2.12,-1.59 -4.85,-0.54 -5.03,-0.46 -0.82,0.33 -1.34,0.78 -1.5,0.92 z m 66.759997,13.16 c 1.8,0.32 4.98,1.17 8.03,3.61 1.45,1.16 2.5,2.39 3.24,3.43 -0.12,1.13 -0.37,2.56 -1.02,2.7 -0.65,0.13 -1.4,-1.11 -1.76,-1.66 -3.36,-5.18 -10.13,-7.42 -9.77,-8.12 0.06,-0.12 0.32,-0.2 1.28,0.04 z m -13.7,-5.51 c -0.67,-0.5 -1.64,-1.07 -2.9,-1.29 -2.54,-0.44 -4.26,0.93 -4.58,0.46 -0.41,-0.58 1.66,-3.52 4.84,-4.88 0.64,-0.27 3.52,-1.43 6.78,-0.31 0.56,0.19 3.28,1.12 4.36,3.56 0.17,0.38 0.66,1.49 0.2,2.06 -0.49,0.6 -1.71,0.19 -3.08,0 -1.29,-0.18 -3.17,-0.24 -5.61,0.4 z m -27.819997,29.9 c -0.72,-0.44 -6.84,-4.1 -8.63,-2.3 -0.48,0.49 -0.46,1.43 -0.39,3.31 0.1,2.63 0.18,4.73 1.41,7.05 0.84,1.57 1.87,3.5 4.07,4.17 2.94,0.9 5.57,-1.21 6.1,-1.64 0.13,-0.1 2.859997,-2.33 2.279997,-3.86 -0.36,-0.94 -1.649997,-0.75 -2.899997,-1.75 -1.49,-1.18 -1.89,-3.23 -1.95,-4.98 z"
        class="l" />
    <path id="path86"
        d="m 101.12126,169.53257 c -0.28,2.65 -1.949997,4.86 -4.279997,5.63 -0.11,0.04 -2.79,0.88 -5.16,-0.66 -2.05,-1.33 -2.74,-3.69 -3.17,-6.03 -0.56,-3.06 -1.27,-9.43 2.19,-22.21 1.97,-7.29 4.6,-10.14 5.55,-11.3 2.11,-2.56 4.339997,-4.26 5.939997,-5.32 a 35.079,35.079 0 0 0 -5.189997,10.07 c -1.42,4.39 -1.52,7.65 -1.57,14.17 -0.03,3.99 0.19,8.82 2.4,12.54 0.46,0.78 1.09,1.63 2.12,2.23 2.029997,1.17 4.229997,0.54 6.259997,0.22 2.15,-0.34 5.22,-0.49 9.15,0.35"
        class="b" />
    <path id="path88"
        d="m 96.011263,163.04257 a 40.805,40.805 0 0 1 -7.69,-2.58 m 45.699997,-29.47 c -0.52,-0.76 -2.54,-3.54 -6.14,-4.22 -3.51,-0.66 -6.33,1.07 -7.18,1.65 -5.92,3.97 -6.69,12.22 -7.56,21.55 -0.07,0.73 -0.77,8.76 1.38,11.14 0.19,0.21 1,1.03 1.13,2.24 0.11,0.99 -0.3,1.55 -0.52,2.39 -0.34,1.33 0.08,2.46 0.91,4.71 0.77,2.07 1.41,3.81 3.01,5.52 1.33,1.43 3.68,3.23 4.64,2.6 0.6,-0.39 0.17,-1.42 0.52,-2.84 0.48,-1.95 2.07,-3.19 4.02,-4.46 9.74,-6.33 19.43,-8.2 20.54,-8.4 1.92,-0.35 3.89,-0.61 5.62,0.51 2.19,1.43 2.66,4.22 2.79,5.23"
        class="b" />
    <path id="path90"
        d="m 155.07126,164.32257 c -4.3,1.09 -7.64,2.5 -9.88,3.59 -4.78,2.32 -11.23,5.39 -13.87,11.71 -0.7,1.67 -0.98,3.17 -1.11,4.19 0.25,-1.3 0.95,-3.83 3.12,-5.69 0.87,-0.74 1.94,-1.36 5.38,-2.18 6.33,-1.51 9.99,-2.39 13.76,-0.56 1.02,0.49 2.39,1.35 3.75,2.91 m -3.81,-27.45 c -1.69,-0.06 -4.26,-0.1 -7.36,0.12 -6.88,0.47 -16.42,1.13 -24.45,7.43 a 30.033,30.033 0 0 0 -4.96,4.96"
        class="b" />
    <path id="path92"
        d="m 150.06126,146.16257 c -1.15,-1.62 -4.52,-5.94 -10.2,-7.13 -7.27,-1.52 -13.2,3.17 -16.52,5.78 -6.06,4.79 -8.72,10.83 -9.85,14.08 m 22.95,-25.79 c -2.6,-0.24 -5.75,-0.32 -9.29,0.03 -4.61,0.46 -8.48,1.5 -11.42,2.54"
        class="b" />
    <path id="path94"
        d="m 124.38126,133.48257 c -0.48,-0.41 -1.2,-0.9 -2.15,-1.25 -2.18,-0.8 -4.14,-0.27 -4.87,-0.03 m 18.96,6.34 c 2.42,1.24 5.55,3.18 8.68,6.15 2.2,2.09 3.86,4.17 5.09,5.97 m -73.599997,21.91 c -0.87,-1.69 -2.03,-4.25 -2.87,-7.51 -0.77,-2.96 -3.26,-13.23 1.98,-23.94 3.2,-6.55 7.94,-10.51 10.91,-12.57 m -17.66,25.16 c -0.31,-1.61 -0.69,-3.92 -0.93,-6.72 -0.77,-9.28 0.86,-14.85 1.72,-17.28 1.64,-4.66 3.06,-5.33 3.52,-5.51 3.41,-1.35 7.6,2.73 7.94,3.07"
        class="b" />
    <path id="path96"
        d="m 79.991263,126.64257 c -1.7,0.54 -5.07,1.86 -8.09,5.05 a 18.976,18.976 0 0 0 -4.04,6.55 m -12.82,3.32 c 0.39,-2.51 1,-5.42 2,-8.59 0.98,-3.1 2.11,-5.78 3.21,-8.02"
        class="b" />
    <ellipse id="ellipse98" cx="69.911263" cy="54.082565" class="j" rx="2.6600001" ry="3.01" />
    <ellipse id="ellipse100" cx="107.53126" cy="50.572567" class="j" rx="2.6600001" ry="3.01" />
</svg>