<svg xmlns="http://www.w3.org/2000/svg" width="16" height="16" viewBox="0 0 270 223">
    <defs>
        <style>
            .g {
                stroke: #231f20;
                stroke-width: 3px;
                stroke-miterlimit: 10
            }
        </style>
    </defs>
    <path
        d="M11.258 80.556c1.15-16.51 3.13-19.38 5.26-21.04 7.09-5.54 20.37-1.34 28.23 4.43 15.69 11.52 17.77 35.16 13.01 51.49-1.18 4.05-6.94 23.78-19.65 25.19-13.71 1.52-24.17-19.51-24.64-20.48-4.35-8.99-3.64-19.19-2.21-39.58z"
        class="g" style="fill:#9c8871" />
    <path
        d="M27.788 134.686c-.36-.92 4.17-2.41 7.08-7.25 1.05-1.74 1.77-3.72 2.39-9.14.29-2.56 1.02-9.88-.22-23.14-.43-4.63-.9-7.71-2.3-11.34-1.32-3.4-2.4-6.1-5.06-7.66-4.68-2.75-10.59.15-11.49.61.28-1.51 1.84-9.12 7.66-11.65 7.85-3.41 16.94 5.24 19.15 7.35 12.78 12.17 10.73 31.03 10.42 33.56-.36 2.89-2.38 19.2-14.4 26.05-5.87 3.34-12.8 3.68-13.23 2.59z"
        style="fill:#725f50" />
    <path
        d="M46.668 181.986c.87.35 2.99-.77 11.5-1.56.18-.02 73.6-7.2 139.44-24.62 4.3-1.14 7.79-3.4 7.79-3.4s4.5-2.91 7.88-7.88c13.72-20.14 7.13-65.2 7.13-65.2-4.19-28.68-12.74-44.86-16.15-50.84 0 0-11.63-20.36-24.71-24.47-4.88-1.53-8.83-2.02-10.93-2.14-48.91-2.77-129.74 10.74-129.74 10.74-6.08 1.01-11.05 1.85-14.27 2.4 31.94 35.46 39.07 64.69 38.52 86.26-.87 33.44-20.99 78.87-16.46 80.71z"
        class="g" style="fill:#f8faf9" />
    <path
        d="M38.378 169.566c-2.33-7.53 11.49-13.86 17-25.93 8.87-19.42-7.18-40.38.58-46.1 2.07-1.53 6.42-2.33 16.88 3.55 9.27 23.92 18.54 47.84 27.82 71.75a82.07 82.07 0 0 1-9.13 3.22c-9.3 2.69-15.2 2.64-30.79 4.45-2.94.34-7.38.88-12.83 1.65a27.472 27.472 0 0 1-6.19-6.27c-1.93-2.72-3.02-5.32-3.33-6.33z"
        class="g" style="fill:#c5c6c8" />
    <path
        d="M53.128 52.456c-5.11-11.54-17.16-38.76-29.35-37.39-7.15.8-11.64 10.97-14.84 19.68-5.63 15.28-10.86 39.24-4.6 77.27 4.89 29.73 13.61 48.63 25.57 61.16 8.43 8.83 13.65 9.45 16.76 8.81 5.07-1.03 8.79-6.25 11.92-14.34 21.25-54.86-5.46-115.2-5.46-115.2zm-17.25 80.57c-5.09.57-11.63-15.61-13.9-28.48-3.05-17.25-.08-37.95 5.46-38.72 5.35-.74 13.39 17.09 15.24 33.14 1.75 15.25-1.56 33.46-6.79 34.05z"
        class="g" style="fill:#e9e9e9" />
    <path
        d="M219.478 74.376c.83 3.38 2.02 8.42 3.29 14.56 4.69 22.62 3.76 27.52 7.07 41.83 4.21 18.24 6.32 27.36 13.28 35.61 3.24 3.84 9.45 9.9 19.5 22.33 1.71 2.11 3.09 3.87 4 5.04-1.24.26-3.24.67-4.52.93-8.21 1.7-8.82 1.8-9.97 2.18-4.62 1.52-4.77 3.04-8.88 4.83-4.49 1.95-7.95 1.71-12.46 1.87-12.14.42-11.65 2.98-27.57 4.52-12.33 1.19-11.28-.48-17.44 1.09-8.83 2.25-11.38 5.77-20.25 6.54-4.65.4-3.86-.57-11.37-.31-4.54.16-10.14.38-16.82 2.34-5.04 1.47-4.78 2.2-8.72 2.96-2.63.51-8.14 1.57-13.39-.62-4.53-1.89-7.15-5.47-8.65-7.79-16.58-25.6-23.58-57.88-23.58-57.88-3.29-15.19-8.82-36.34-18.68-62.05"
        class="g" style="fill:#f8faf9" />
</svg>