<svg xmlns="http://www.w3.org/2000/svg" data-name="Layer 1" viewBox="0 0 533.12 823.91"><path d="M410.988 446.35c7.632.544 18.801-1.808 29.874.8 12.433 2.942 22.39 8.606 29.384 20.144 18.784 30.992 32.927 63.657 39.054 99.519a308.26 308.26 0 0 1 3.522 69.114c-1.438 26.067-4.307 52.02-10.64 77.39-6.203 24.91-16.496 47.948-32.441 68.332-8.53 10.91-19.294 16.5-33.22 17.385-31.2 1.996-62.368 4.681-93.548 6.996-25.991 1.932-52.093 3.713-78.145 5.635-26.53 1.963-53.071 4.057-79.602 6.03q-38.567 2.88-77.145 5.64a68.38 68.38 0 0 0-7.457.575c-18.914 3.518-33.46-3.964-45.335-17.989-13.635-16.097-22.383-34.896-29.394-54.554C8.792 703.527-.438 654.31 1.205 603.331c.375-11.632 1.982-23.16 3.448-34.707 1.61-12.687 1.961-25.519 3.192-38.265 4.96-51.304 11.623-102.265 29.015-151.217 8.568-24.14 22.963-44.517 39.705-63.395 19.976-22.544 40.413-44.66 60.418-67.163a272.1 272.1 0 0 0 26.464-35.593c13.531-21.354 16.795-44.08 12.14-68.788a361.26 361.26 0 0 0-30.089-91.92c-1.423-2.934-1.937-5.822.612-8.253 2.549-2.432 5.482-1.676 8.368-.36q36.709 16.73 73.417 33.439c2.626 1.198 5.252 2.615 7.902.363 2.65-2.252 1.576-5.007.963-7.825-1.31-6.684-2.352-13.419-3.244-20.175-.933-7.065 2.714-10.012 9.444-7.814q23.637 7.81 47.204 15.78c2.694.918 5.237 1.556 7.276-.954 2.038-2.51 1.096-5.005-.185-7.459-.464-.888-.938-1.765-1.333-2.674-1.091-2.465-1.163-4.904.728-7.003 1.89-2.099 4.068-2.469 6.802-1.742 13.016 3.45 26.031 6.769 39.047 10.128 7.56 1.965 9.82-.045 8.645-7.62-.763-4.996 1.474-7.737 6.696-7.221 11.746 1.135 23.443 2.68 35.16 4.086 6.383.76 8.809-2.311 6.192-8.189-1.304-2.934-1.436-5.533 1.024-7.725 2.609-2.332 5.481-1.785 8.289-.178 12.032 6.834 24.588 12.445 38.27 15.071a45.12 45.12 0 0 0 9.415.846c12.288-.297 18.898-6.908 19.818-19.732a85.2 85.2 0 0 0 .031-10.48c-.165-3.33.692-6.004 3.967-7.199 3.274-1.195 5.731.393 7.644 3.084a240.91 240.91 0 0 1 25.518 46.682c13.803 32.826 20.252 66.986 18.368 102.606-1.901 36.219-15.393 67.982-37.18 96.584-16.42 21.547-35.913 40.168-55.578 58.61q-13.46 12.632-26.6 25.614c-12.732 12.56-20.5 27.926-25.792 44.89a205.68 205.68 0 0 0-9.508 64.785c.016 3.45 1.02 4.436 4.56 4.29 8.709-.311 17.43-.132 29.55-.188zM21.535 511.165c1.658-.508 1.823-1.568 2.27-2.41a160.38 160.38 0 0 1 31.145-41.826c9.079-8.762 19.44-15.09 32.498-15.552 6.308-.25 12.638-.439 18.997-.508 28.12-.321 56.248-.612 84.365-1.323 33.287-.845 66.576-1.02 99.864-1.566 23.628-.38 47.256-.94 70.885-1.22 3.32-.016 3.814-1.288 3.68-4.107-.651-13.347.667-26.564 2.816-39.724 5.832-36.027 20.307-67.165 48.493-91.767 21.403-18.68 42.021-38.356 60.49-60.122 27.669-32.6 43.787-69.485 43.165-112.823a221 221 0 0 0-14.432-75.413 233.51 233.51 0 0 0-18.037-37.987c-.448.382-.638.463-.687.604q-.732 1.833-1.393 3.696c-3.573 10.017-10.413 16.429-20.913 18.688a50.63 50.63 0 0 1-18.85.168c-10.728-1.73-20.815-5.503-30.617-10.088-1.683-.782-2.788-1.677-4.145 1.02-4.201 8.38-9.808 11.145-19.103 10.089-7.755-.904-15.49-2.068-23.254-2.892-1.881-.201-4.076-1.301-5.422 1.785-5.066 11.654-11.312 14.543-23.737 11.411-8.36-2.101-16.789-4.022-25.03-6.423-3.124-.916-3.58.086-3.987 2.738-1.947 11.47-11.92 17.386-22.997 13.707-4.407-1.469-8.774-3.029-13.18-4.498-9.015-3.018-18.119-5.996-27.914-9.24.892 4.776 1.36 8.724 2.408 12.519 2.034 7.29.564 13.657-5.154 18.534-5.717 4.877-12.305 5.257-19.13 2.09-7.536-3.476-15.122-6.85-22.668-10.295q-18.94-8.612-37.851-17.244c-.843 1.464.01 2.26.365 3.138a384.71 384.71 0 0 1 23.208 79.063c4.844 26.528 1.309 51.134-12.854 74.23a293.6 293.6 0 0 1-23.597 32.82c-21.041 25.6-44.643 48.89-66.316 73.92-17.258 19.921-31.558 41.428-39.62 66.796-8.623 27.12-14.474 54.838-18.693 82.928-1.883 12.249-3.376 24.546-5.068 37.094zM122.73 810.207c12.066-.836 22.923-1.537 33.77-2.348 30.989-2.324 61.978-4.738 93.018-7.043 31.18-2.305 62.37-4.46 93.54-6.776 30.849-2.294 61.667-4.948 92.528-6.931 10.647-.69 18.607-4.947 24.998-13.237 14.413-18.707 23.905-39.752 29.72-62.5 6.178-24.028 8.883-48.671 10.468-73.369a293.87 293.87 0 0 0-3.417-70.085c-5.948-33.812-19.301-64.66-37.088-93.878-4.918-8.077-11.508-12.516-20.179-14.806a61 61 0 0 0-16.827-1.522c-30.948.615-61.885 1.289-92.833 1.803-28.288.432-56.578.624-84.864 1.396-33.437.835-66.896 1.071-100.344 1.537-8.73.12-17.46.082-26.11.122-.16 2 .872 2.516 1.545 3.143a112.78 112.78 0 0 1 19.696 24.928 319.33 319.33 0 0 1 38.568 100.332c6.14 30.181 8.002 60.593 4.185 91.231-4.125 33.13-15.704 63.604-32.911 92.094-7.641 12.656-15.905 24.815-27.463 35.919zM13.04 617.316a296.5 296.5 0 0 0 2.17 36.35c4.25 36.63 12.876 72.17 26.935 106.286 5.644 13.704 12.475 26.852 22.328 38.106 7.65 8.745 16.294 15.824 29.067 14.405 8.556-.96 15.104-5.72 21.148-11.289 9.15-8.413 16.104-18.535 22.725-28.966 24.65-38.805 36.873-81.103 35.658-127.098a301.39 301.39 0 0 0-24.955-112.565c-7.986-18.512-16.69-36.602-29.943-52.07a65.49 65.49 0 0 0-7.334-7.466c-15.502-13.128-30.421-12.989-45.508.722a142.11 142.11 0 0 0-33.693 46.567c-14.096 30.816-18.854 63.459-18.598 97.018Z"/><path d="M112.682 641.182a86.66 86.66 0 0 1-13.185 48.322c-8.188 13.358-17.478 13.351-23.804-.89-12.512-28.201-16.449-57.603-8.61-87.96a49 49 0 0 1 10.697-20.05c5.968-6.828 12.499-6.669 17.883.626 7.85 10.634 11.467 23.097 14.396 35.744a109.56 109.56 0 0 1 2.623 24.208z"/></svg>