<svg xmlns="http://www.w3.org/2000/svg" width="16" height="16" viewBox="-18 0 270 223">
    <defs>
        <style>
            .g {
                stroke: #231f20;
                stroke-width: 3px;
                stroke-miterlimit: 10;
            }
        </style>
    </defs>
    <path
        d="M171.168 67.306c1.16 3.32 2.83 8.26 4.68 14.3 6.78 22.24 6.02 27.2 10.7 41.24 5.96 17.9 8.95 26.85 17.45 34.59 3.96 3.6 11.45 9.21 23.76 20.89 2.09 1.99 3.79 3.64 4.9 4.74-1.41.34-3.67.9-5.12 1.25-9.32 2.28-10.01 2.43-11.3 2.89-5.21 1.84-5.29 3.38-9.88 5.45-5.02 2.27-9.01 2.28-14.18 2.75-13.9 1.28-13.18 3.8-31.34 6.48-14.07 2.07-12.97.33-19.94 2.33-9.99 2.87-12.69 6.57-22.82 7.97-5.3.74-4.46-.29-13.06.5-5.2.48-11.61 1.11-19.15 3.53-5.69 1.83-5.35 2.54-9.82 3.58-2.99.69-9.24 2.14-15.4.33-4.61-1.35-7.83-4.32-10.41-7.15-23.1-25.33-34.06-54.77-34.06-54.77-5.18-14.12-11.49-35.96-13.03-63.95"
        style="fill:#d1d1d1" class="g" />
    <path
        d="M11.258 80.556c1.15-16.51 3.13-19.38 5.26-21.04 7.09-5.54 20.37-1.34 28.23 4.43 15.69 11.52 17.77 35.16 13.01 51.49-1.18 4.05-6.94 23.78-19.65 25.19-13.71 1.52-24.17-19.51-24.64-20.48-4.35-8.99-3.64-19.19-2.21-39.58z"
        style="fill:#9c8871" class="g" />
    <path
        d="M27.788 134.686c-.36-.92 4.17-2.41 7.08-7.25 1.05-1.74 1.77-3.72 2.39-9.14.29-2.56 1.02-9.88-.22-23.14-.43-4.63-.9-7.71-2.3-11.34-1.32-3.4-2.4-6.1-5.06-7.66-4.68-2.75-10.59.15-11.49.61.28-1.51 1.84-9.12 7.66-11.65 7.85-3.41 16.94 5.24 19.15 7.35 12.78 12.17 10.73 31.03 10.42 33.56-.36 2.89-2.38 19.2-14.4 26.05-5.87 3.34-12.8 3.68-13.23 2.59z"
        style="fill:#725f50" />
    <path
        d="M46.668 181.986c.87.35 2.99-.77 11.5-1.56.18-.02 73.6-7.2 139.44-24.62 4.3-1.14 7.79-3.4 7.79-3.4s4.5-2.91 7.88-7.88c13.72-20.14 7.13-65.2 7.13-65.2-4.19-28.68-12.74-44.86-16.15-50.84 0 0-11.63-20.36-24.71-24.47-4.88-1.53-8.83-2.02-10.93-2.14-48.91-2.77-129.74 10.74-129.74 10.74-6.08 1.01-11.05 1.85-14.27 2.4 31.94 35.46 39.07 64.69 38.52 86.26-.87 33.44-20.99 78.87-16.46 80.71z"
        style="fill:#f8faf9" class="g" />
    <path
        d="M53.128 52.456c-5.11-11.54-17.16-38.76-29.35-37.39-7.15.8-11.64 10.97-14.84 19.68-5.63 15.28-10.86 39.24-4.6 77.27 4.89 29.73 13.61 48.63 25.57 61.16 8.43 8.83 13.65 9.45 16.76 8.81 5.07-1.03 8.79-6.25 11.92-14.34 21.25-54.86-5.46-115.2-5.46-115.2zm-17.25 80.57c-5.09.57-11.63-15.61-13.9-28.48-3.05-17.25-.08-37.95 5.46-38.72 5.35-.74 13.39 17.09 15.24 33.14 1.75 15.25-1.56 33.46-6.79 34.05z"
        style="fill:#e9e9e9" class="g" />
</svg>